<svg width="1024" height="1024" viewBox="0 0 1024 1024" xmlns="http://www.w3.org/2000/svg" fill="none" stroke="black" stroke-width="2">
  <path d="M 794,85 L 793,86 L 787,86 L 786,87 L 781,87 L 780,88 L 776,88 L 775,89 L 771,89 L 770,90 L 767,90 L 766,91 L 762,91 L 761,92 L 758,92 L 757,93 L 754,93 L 753,94 L 750,94 L 749,95 L 746,95 L 745,96 L 743,96 L 742,97 L 740,97 L 739,98 L 736,98 L 735,99 L 733,99 L 732,100 L 730,100 L 729,101 L 727,101 L 726,102 L 724,102 L 723,103 L 722,103 L 721,104 L 719,104 L 718,105 L 716,105 L 715,106 L 714,106 L 713,107 L 711,107 L 710,108 L 709,108 L 708,109 L 706,109 L 705,110 L 704,110 L 703,111 L 701,111 L 700,112 L 699,112 L 698,113 L 697,113 L 696,114 L 695,114 L 694,115 L 692,115 L 691,116 L 690,116 L 689,117 L 688,117 L 687,118 L 686,118 L 685,119 L 683,119 L 682,120 L 681,120 L 680,121 L 679,121 L 678,122 L 677,122 L 676,123 L 675,123 L 674,124 L 673,124 L 672,125 L 671,125 L 670,126 L 669,126 L 668,127 L 667,127 L 666,128 L 665,128 L 664,129 L 663,129 L 662,130 L 661,130 L 660,131 L 659,131 L 658,132 L 657,132 L 656,133 L 655,133 L 654,134 L 653,134 L 651,136 L 650,136 L 649,137 L 648,137 L 647,138 L 646,138 L 645,139 L 644,139 L 643,140 L 642,140 L 640,142 L 639,142 L 638,143 L 637,143 L 635,145 L 634,145 L 633,146 L 632,146 L 631,147 L 630,147 L 628,149 L 627,149 L 625,151 L 624,151 L 623,152 L 622,152 L 620,154 L 619,154 L 617,156 L 616,156 L 614,158 L 613,158 L 611,160 L 610,160 L 608,162 L 607,162 L 605,164 L 604,164 L 601,167 L 600,167 L 597,170 L 596,170 L 593,173 L 592,173 L 589,176 L 588,176 L 584,180 L 583,180 L 578,185 L 577,185 L 561,201 L 561,202 L 559,204 L 559,205 L 558,206 L 558,207 L 556,209 L 556,211 L 555,212 L 555,213 L 554,214 L 554,216 L 553,217 L 553,220 L 552,221 L 552,224 L 551,225 L 551,230 L 550,231 L 550,238 L 549,239 L 549,246 L 548,247 L 548,253 L 547,254 L 547,259 L 546,260 L 546,265 L 545,266 L 545,271 L 544,272 L 544,278 L 543,279 L 543,285 L 542,286 L 542,292 L 541,293 L 541,299 L 540,300 L 540,306 L 539,307 L 538,306 L 538,304 L 537,303 L 537,299 L 536,298 L 536,291 L 535,290 L 535,284 L 534,283 L 534,277 L 533,276 L 533,271 L 532,270 L 532,264 L 531,263 L 531,257 L 530,256 L 530,249 L 529,248 L 529,241 L 528,240 L 528,236 L 525,233 L 521,233 L 520,234 L 519,234 L 518,235 L 517,235 L 516,236 L 515,236 L 510,241 L 509,241 L 497,253 L 496,253 L 481,268 L 481,269 L 470,280 L 470,281 L 463,288 L 463,289 L 458,294 L 458,295 L 454,299 L 454,300 L 451,303 L 451,304 L 447,308 L 447,309 L 444,312 L 444,313 L 441,316 L 441,317 L 438,320 L 438,321 L 436,323 L 436,324 L 433,327 L 433,328 L 431,330 L 431,331 L 428,334 L 428,335 L 426,337 L 426,338 L 423,341 L 423,342 L 421,344 L 421,345 L 418,348 L 418,349 L 416,351 L 416,352 L 413,355 L 413,356 L 411,358 L 411,359 L 409,361 L 409,362 L 407,364 L 407,365 L 405,367 L 405,368 L 403,370 L 403,371 L 401,373 L 401,374 L 399,376 L 399,377 L 398,378 L 398,379 L 396,381 L 396,382 L 395,383 L 395,384 L 393,386 L 393,387 L 392,388 L 392,389 L 390,391 L 390,392 L 389,393 L 389,394 L 387,396 L 387,397 L 385,399 L 385,400 L 384,401 L 384,402 L 383,403 L 383,404 L 381,406 L 381,407 L 380,408 L 380,409 L 379,410 L 379,411 L 377,413 L 377,414 L 376,415 L 376,416 L 375,417 L 375,418 L 373,420 L 373,421 L 372,422 L 372,423 L 371,424 L 371,425 L 369,427 L 369,428 L 368,429 L 368,430 L 367,431 L 367,432 L 366,433 L 366,434 L 364,436 L 364,437 L 363,438 L 363,439 L 362,440 L 362,441 L 361,442 L 361,443 L 360,444 L 360,445 L 359,446 L 359,447 L 358,448 L 358,449 L 357,450 L 357,451 L 356,452 L 356,453 L 355,454 L 355,455 L 354,456 L 354,457 L 353,458 L 353,459 L 352,460 L 352,461 L 351,462 L 351,463 L 350,464 L 350,466 L 349,467 L 349,468 L 348,469 L 348,470 L 347,471 L 347,472 L 346,473 L 346,475 L 345,476 L 345,477 L 344,478 L 344,479 L 343,480 L 343,482 L 342,483 L 342,484 L 341,485 L 341,486 L 340,487 L 340,489 L 339,490 L 339,491 L 338,492 L 338,494 L 337,495 L 337,496 L 336,497 L 336,498 L 335,499 L 335,501 L 334,502 L 334,504 L 333,505 L 333,506 L 332,507 L 332,509 L 331,510 L 331,511 L 330,512 L 330,514 L 329,515 L 329,516 L 328,517 L 328,519 L 327,520 L 327,522 L 326,523 L 326,524 L 325,525 L 325,527 L 324,528 L 324,530 L 323,531 L 323,533 L 322,534 L 322,536 L 321,537 L 321,539 L 320,540 L 320,542 L 319,543 L 319,545 L 318,546 L 318,548 L 317,549 L 317,551 L 316,552 L 316,555 L 315,556 L 315,558 L 314,559 L 314,562 L 313,563 L 313,565 L 312,566 L 312,569 L 311,570 L 311,573 L 310,574 L 310,577 L 309,578 L 309,581 L 308,582 L 308,586 L 307,587 L 307,590 L 306,591 L 306,595 L 305,596 L 305,600 L 304,601 L 304,604 L 303,605 L 303,609 L 302,610 L 302,614 L 301,615 L 301,620 L 300,621 L 300,626 L 299,627 L 299,633 L 298,634 L 298,641 L 297,642 L 297,652 L 296,653 L 296,665 L 295,666 L 295,711 L 296,712 L 296,722 L 297,723 L 297,732 L 298,733 L 298,740 L 299,741 L 299,746 L 300,747 L 300,752 L 301,753 L 301,757 L 302,758 L 302,761 L 303,762 L 303,765 L 304,766 L 304,768 L 305,769 L 305,772 L 306,773 L 306,776 L 307,777 L 307,780 L 308,781 L 308,783 L 309,784 L 309,786 L 310,787 L 310,789 L 311,790 L 310,791 L 310,792 L 309,793 L 309,795 L 308,796 L 308,797 L 307,798 L 307,800 L 306,801 L 306,802 L 305,803 L 305,804 L 304,805 L 304,806 L 303,807 L 303,809 L 302,810 L 302,811 L 301,812 L 301,813 L 300,814 L 300,816 L 299,817 L 299,818 L 298,819 L 298,820 L 297,821 L 297,823 L 296,824 L 296,825 L 295,826 L 295,827 L 294,828 L 294,830 L 293,831 L 293,832 L 292,833 L 292,834 L 291,835 L 291,837 L 290,838 L 290,839 L 289,840 L 289,841 L 288,842 L 288,844 L 287,845 L 287,846 L 286,847 L 286,849 L 285,850 L 285,851 L 284,852 L 284,853 L 283,854 L 283,856 L 282,857 L 282,858 L 281,859 L 281,861 L 280,862 L 280,863 L 279,864 L 279,866 L 278,867 L 278,868 L 277,869 L 277,871 L 276,872 L 276,873 L 275,874 L 275,876 L 274,877 L 274,879 L 273,880 L 273,881 L 272,882 L 272,884 L 271,885 L 271,887 L 270,888 L 270,889 L 269,890 L 269,892 L 268,893 L 268,895 L 267,896 L 267,898 L 266,899 L 266,900 L 265,901 L 265,903 L 264,904 L 264,906 L 263,907 L 263,909 L 262,910 L 262,912 L 261,913 L 261,915 L 260,916 L 260,918 L 259,919 L 259,921 L 258,922 L 258,923 L 257,924 L 257,926 L 256,927 L 256,932 L 257,933 L 257,934 L 258,935 L 258,936 L 259,937 L 260,937 L 261,938 L 262,938 L 263,939 L 269,939 L 270,938 L 272,938 L 277,933 L 277,932 L 278,931 L 278,929 L 279,928 L 279,927 L 280,926 L 280,924 L 281,923 L 281,921 L 282,920 L 282,918 L 283,917 L 283,916 L 284,915 L 284,913 L 285,912 L 285,910 L 286,909 L 286,907 L 287,906 L 287,904 L 288,903 L 288,901 L 289,900 L 289,899 L 290,898 L 290,896 L 291,895 L 291,893 L 292,892 L 292,890 L 293,889 L 293,888 L 294,887 L 294,885 L 295,884 L 295,882 L 296,881 L 296,880 L 297,879 L 297,877 L 298,876 L 298,874 L 299,873 L 299,872 L 300,871 L 300,869 L 301,868 L 301,867 L 302,866 L 302,864 L 303,863 L 303,861 L 304,860 L 304,858 L 305,857 L 305,856 L 306,855 L 306,853 L 307,852 L 307,850 L 308,849 L 308,848 L 309,847 L 309,845 L 310,844 L 310,843 L 311,842 L 311,840 L 312,839 L 312,837 L 313,836 L 313,835 L 314,834 L 314,832 L 315,831 L 315,829 L 316,828 L 316,827 L 317,826 L 317,824 L 318,823 L 318,822 L 319,821 L 319,819 L 320,818 L 320,816 L 321,815 L 321,814 L 322,813 L 322,811 L 323,810 L 323,809 L 324,808 L 324,807 L 325,806 L 325,804 L 326,803 L 326,802 L 327,801 L 327,799 L 328,798 L 328,797 L 329,796 L 337,796 L 338,795 L 346,795 L 347,794 L 352,794 L 353,793 L 358,793 L 359,792 L 363,792 L 364,791 L 367,791 L 368,790 L 372,790 L 373,789 L 376,789 L 377,788 L 380,788 L 381,787 L 383,787 L 384,786 L 387,786 L 388,785 L 390,785 L 391,784 L 394,784 L 395,783 L 397,783 L 398,782 L 400,782 L 401,781 L 403,781 L 404,780 L 406,780 L 407,779 L 408,779 L 409,778 L 411,778 L 412,777 L 414,777 L 415,776 L 416,776 L 417,775 L 419,775 L 420,774 L 421,774 L 422,773 L 424,773 L 425,772 L 426,772 L 427,771 L 429,771 L 430,770 L 431,770 L 432,769 L 433,769 L 434,768 L 436,768 L 437,767 L 438,767 L 439,766 L 440,766 L 441,765 L 442,765 L 443,764 L 444,764 L 445,763 L 446,763 L 447,762 L 448,762 L 449,761 L 450,761 L 451,760 L 452,760 L 453,759 L 454,759 L 455,758 L 456,758 L 457,757 L 458,757 L 459,756 L 460,756 L 461,755 L 462,755 L 463,754 L 464,754 L 465,753 L 466,753 L 467,752 L 468,752 L 470,750 L 471,750 L 472,749 L 473,749 L 474,748 L 475,748 L 476,747 L 477,747 L 479,745 L 480,745 L 481,744 L 482,744 L 484,742 L 485,742 L 487,740 L 488,740 L 490,738 L 491,738 L 492,737 L 493,737 L 495,735 L 496,735 L 499,732 L 500,732 L 502,730 L 503,730 L 506,727 L 507,727 L 509,725 L 510,725 L 513,722 L 514,722 L 517,719 L 518,719 L 522,715 L 523,715 L 526,712 L 527,712 L 531,708 L 532,708 L 537,703 L 538,703 L 544,697 L 545,697 L 551,691 L 552,691 L 567,676 L 568,676 L 571,673 L 571,672 L 588,655 L 588,654 L 596,646 L 596,645 L 601,640 L 601,639 L 607,633 L 607,632 L 611,628 L 611,627 L 612,626 L 612,625 L 613,624 L 613,622 L 614,621 L 614,620 L 613,619 L 613,616 L 609,612 L 606,612 L 605,611 L 598,611 L 597,610 L 590,610 L 589,609 L 582,609 L 581,608 L 574,608 L 573,607 L 567,607 L 566,606 L 567,605 L 569,605 L 570,604 L 573,604 L 574,603 L 578,603 L 579,602 L 582,602 L 583,601 L 586,601 L 587,600 L 591,600 L 592,599 L 595,599 L 596,598 L 599,598 L 600,597 L 604,597 L 605,596 L 608,596 L 609,595 L 612,595 L 613,594 L 615,594 L 616,593 L 618,593 L 619,592 L 621,592 L 622,591 L 623,591 L 624,590 L 626,590 L 627,589 L 628,589 L 629,588 L 630,588 L 632,586 L 633,586 L 634,585 L 635,585 L 638,582 L 639,582 L 643,578 L 644,578 L 646,576 L 646,575 L 650,571 L 650,570 L 653,567 L 653,566 L 655,564 L 655,563 L 659,559 L 659,558 L 662,555 L 662,554 L 664,552 L 664,551 L 667,548 L 667,547 L 669,545 L 669,544 L 671,542 L 671,541 L 673,539 L 673,538 L 675,536 L 675,535 L 677,533 L 677,532 L 679,530 L 679,529 L 681,527 L 681,526 L 684,523 L 684,522 L 686,520 L 686,519 L 688,517 L 688,516 L 690,514 L 690,513 L 692,511 L 692,510 L 694,508 L 694,507 L 696,505 L 696,504 L 698,502 L 698,501 L 699,500 L 699,499 L 701,497 L 701,496 L 703,494 L 703,493 L 704,492 L 704,491 L 706,489 L 706,488 L 707,487 L 707,486 L 709,484 L 709,483 L 710,482 L 710,481 L 712,479 L 712,478 L 713,477 L 713,476 L 714,475 L 714,474 L 716,472 L 716,471 L 717,470 L 717,469 L 718,468 L 718,467 L 719,466 L 719,465 L 720,464 L 720,463 L 721,462 L 721,461 L 722,460 L 722,459 L 723,458 L 723,457 L 724,456 L 724,455 L 725,454 L 725,453 L 726,452 L 726,451 L 727,450 L 727,449 L 729,447 L 729,446 L 730,445 L 730,444 L 731,443 L 731,442 L 732,441 L 732,440 L 733,439 L 733,438 L 734,437 L 734,436 L 735,435 L 735,434 L 736,433 L 736,432 L 737,431 L 737,430 L 738,429 L 738,428 L 739,427 L 739,426 L 740,425 L 740,424 L 741,423 L 741,421 L 742,420 L 742,419 L 743,418 L 743,417 L 744,416 L 744,415 L 745,414 L 745,412 L 746,411 L 746,410 L 747,409 L 747,408 L 748,407 L 748,405 L 749,404 L 749,403 L 750,402 L 750,401 L 751,400 L 751,399 L 752,398 L 752,397 L 753,396 L 753,394 L 754,393 L 754,392 L 755,391 L 755,390 L 756,389 L 756,388 L 757,387 L 757,386 L 758,385 L 758,383 L 759,382 L 759,381 L 760,380 L 760,379 L 761,378 L 761,376 L 762,375 L 762,374 L 763,373 L 763,371 L 764,370 L 764,369 L 765,368 L 765,366 L 766,365 L 766,364 L 767,363 L 767,361 L 768,360 L 768,359 L 769,358 L 769,356 L 770,355 L 770,354 L 771,353 L 771,351 L 772,350 L 772,349 L 773,348 L 773,345 L 774,344 L 774,341 L 773,340 L 773,338 L 770,335 L 769,335 L 768,334 L 757,334 L 756,335 L 750,335 L 749,336 L 744,336 L 743,337 L 739,337 L 738,338 L 732,338 L 731,339 L 727,339 L 726,340 L 722,340 L 721,341 L 716,341 L 715,342 L 712,342 L 711,341 L 712,340 L 713,340 L 714,339 L 715,339 L 716,338 L 717,338 L 718,337 L 719,337 L 720,336 L 722,336 L 724,334 L 726,334 L 727,333 L 728,333 L 729,332 L 730,332 L 731,331 L 732,331 L 733,330 L 734,330 L 735,329 L 736,329 L 737,328 L 738,328 L 739,327 L 740,327 L 741,326 L 742,326 L 743,325 L 744,325 L 745,324 L 746,324 L 747,323 L 748,323 L 749,322 L 750,322 L 752,320 L 753,320 L 754,319 L 755,319 L 756,318 L 757,318 L 759,316 L 760,316 L 761,315 L 762,315 L 763,314 L 764,314 L 766,312 L 767,312 L 769,310 L 770,310 L 773,307 L 774,307 L 779,302 L 780,302 L 786,296 L 786,295 L 791,290 L 791,289 L 794,286 L 794,285 L 796,283 L 796,282 L 797,281 L 797,280 L 799,278 L 799,277 L 800,276 L 800,275 L 801,274 L 801,273 L 803,271 L 803,269 L 804,268 L 804,267 L 805,266 L 805,265 L 806,264 L 806,263 L 807,262 L 807,261 L 808,260 L 808,259 L 809,258 L 809,256 L 810,255 L 810,254 L 811,253 L 811,251 L 812,250 L 812,249 L 813,248 L 813,246 L 814,245 L 814,244 L 815,243 L 815,241 L 816,240 L 816,238 L 817,237 L 817,236 L 818,235 L 818,233 L 819,232 L 819,230 L 820,229 L 820,227 L 821,226 L 821,223 L 822,222 L 822,220 L 823,219 L 823,217 L 824,216 L 824,213 L 825,212 L 825,210 L 826,209 L 826,206 L 827,205 L 827,202 L 828,201 L 828,198 L 829,197 L 829,194 L 830,193 L 830,190 L 831,189 L 831,185 L 832,184 L 832,180 L 833,179 L 833,175 L 834,174 L 834,169 L 835,168 L 835,163 L 836,162 L 836,155 L 837,154 L 837,146 L 838,145 L 838,136 L 839,135 L 839,107 L 838,106 L 838,103 L 837,102 L 837,101 L 836,100 L 836,98 L 834,96 L 834,95 L 830,91 L 829,91 L 827,89 L 826,89 L 825,88 L 824,88 L 823,87 L 821,87 L 820,86 L 818,86 L 817,85 Z"/>
</svg>