<?xml version="1.0" standalone="no"?>
<!DOCTYPE svg PUBLIC "-//W3C//DTD SVG 20010904//EN"
 "http://www.w3.org/TR/2001/REC-SVG-20010904/DTD/svg10.dtd">
<svg version="1.0" xmlns="http://www.w3.org/2000/svg"
 width="100.000000pt" height="100.000000pt" viewBox="0 0 100.000000 100.000000"
 preserveAspectRatio="xMidYMid meet">

<g transform="translate(0.000000,100.000000) scale(0.100000,-0.100000)"
fill="#000000" stroke="none">
<path d="M374 810 c-12 -5 -25 -13 -29 -19 -3 -6 -19 -11 -34 -11 -15 0 -42
-10 -59 -22 -17 -13 -66 -50 -109 -82 -43 -32 -93 -70 -111 -83 -33 -25 -43
-53 -18 -53 14 0 185 120 244 171 58 51 62 45 62 -96 0 -114 -2 -125 -20 -135
-23 -12 -27 -40 -6 -40 8 0 73 27 144 60 139 64 151 67 170 48 36 -36 -8 -95
-103 -138 -33 -15 -73 -42 -90 -59 -61 -65 -82 -72 -248 -83 -150 -9 -176 -15
-162 -38 8 -13 216 -5 299 11 41 8 52 7 67 -7 14 -13 29 -15 63 -11 32 5 47 2
56 -8 16 -19 84 -19 99 -1 8 10 23 13 44 9 43 -7 83 26 97 78 l11 39 100 0
c98 0 101 1 130 29 l29 29 0 182 0 182 -29 29 -29 29 -274 -1 c-150 0 -283 -4
-294 -9z m568 -47 c46 -41 34 -43 -282 -43 -313 0 -320 1 -283 42 15 17 37 18
281 18 233 0 268 -2 284 -17z m18 -237 c0 -91 -3 -118 -16 -130 -13 -13 -46
-16 -206 -16 l-191 0 41 30 c58 42 76 72 69 117 -14 81 -68 88 -201 25 -49
-23 -90 -42 -92 -42 -2 0 -4 29 -4 65 l0 65 300 0 300 0 0 -114z m-490 -216
c0 -34 -35 -58 -67 -46 -15 6 -12 12 22 41 22 19 41 34 43 35 1 0 2 -14 2 -30z
m117 -10 c-3 -47 -16 -63 -48 -58 -21 3 -24 9 -27 51 l-3 47 40 0 41 0 -3 -40z
m107 18 c-21 -73 -80 -76 -67 -5 5 23 10 27 40 27 31 0 34 -2 27 -22z"/>
</g>
</svg>
