<?xml version="1.0" standalone="no"?>
<!DOCTYPE svg PUBLIC "-//W3C//DTD SVG 20010904//EN"
 "http://www.w3.org/TR/2001/REC-SVG-20010904/DTD/svg10.dtd">
<svg version="1.0" xmlns="http://www.w3.org/2000/svg"
 width="100.000000pt" height="100.000000pt" viewBox="0 0 100.000000 100.000000"
 preserveAspectRatio="xMidYMid meet">

<g transform="translate(0.000000,100.000000) scale(0.100000,-0.100000)"
fill="#000000" stroke="none">
<path d="M45 867 c-3 -7 -4 -123 -3 -257 l3 -245 455 0 455 0 0 255 0 255
-453 3 c-360 2 -454 0 -457 -11z m135 -247 l0 -220 -50 0 -50 0 0 220 0 220
50 0 50 0 0 -220z m600 0 l0 -220 -280 0 -280 0 0 220 0 220 280 0 280 0 0
-220z m140 0 l0 -220 -50 0 -50 0 0 220 0 220 50 0 50 0 0 -220z"/>
<path d="M454 771 c-25 -11 -64 -58 -64 -77 0 -8 -9 -14 -20 -14 -32 0 -70
-44 -70 -80 0 -38 41 -83 72 -78 31 4 34 26 4 38 -51 19 -45 70 9 80 22 4 31
13 37 37 22 83 134 83 156 0 6 -24 15 -33 37 -37 54 -10 60 -61 9 -80 -30 -12
-27 -34 4 -38 31 -5 72 40 72 78 0 36 -38 80 -70 80 -11 0 -20 7 -20 15 0 8
-12 29 -27 45 -30 34 -89 48 -129 31z"/>
<path d="M45 330 c-14 -22 10 -30 88 -30 208 0 510 -42 660 -91 52 -17 94 -26
99 -21 5 5 8 40 6 78 -2 53 -6 69 -18 69 -11 0 -16 -14 -18 -52 l-3 -52 -37
13 c-33 11 -38 18 -42 52 -6 50 -34 54 -38 6 -3 -30 -6 -33 -25 -28 -152 43
-654 85 -672 56z"/>
<path d="M40 262 c0 -17 12 -20 118 -25 254 -14 463 -71 615 -169 59 -38 69
-31 65 48 -2 44 -7 59 -18 59 -10 0 -16 -12 -18 -37 l-3 -36 -29 16 c-22 13
-30 25 -32 52 -3 40 -31 49 -36 12 -3 -18 -8 -22 -20 -16 -157 66 -399 114
-582 114 -52 0 -60 -3 -60 -18z"/>
</g>
</svg>
