<svg width="108" height="114" viewBox="0 0 108 114" fill="none" xmlns="http://www.w3.org/2000/svg">
<g opacity="0.2" filter="url(#filter0_d_1548_1676)">
<path d="M95.7167 0.558983C83.9159 5.46562 77.498 9.54414 75.6347 13.3328C73.8542 16.9352 73.937 21.3035 75.8624 25.0715L76.3386 26.0445L70.2726 38.425C64.2894 50.6812 64.2066 50.8262 63.6269 50.7641C61.2667 50.4949 58.3476 47.5551 57.2503 44.3461C56.505 42.1309 56.8569 38.984 58.0991 36.8516C58.389 36.334 59.6726 34.8848 60.9355 33.6426C62.8194 31.7793 63.3784 31.0754 63.9995 29.8125C64.9726 27.8043 65.3866 26.0031 65.3866 23.6844C65.3866 16.0449 59.4655 10.1445 51.7847 10.1445C51.0187 10.1445 49.3003 10.248 47.996 10.3516C36.7128 11.3453 26.6718 15.9 18.6183 23.7051C14.6433 27.5559 11.7655 31.5102 9.19835 36.6652C2.61476 49.8945 2.42843 65.6289 8.74289 78.7754C15.9062 93.6816 29.4667 103.536 45.8015 105.689C48.9484 106.104 54.9109 106.104 58.0784 105.689C68.2851 104.364 77.7464 99.7684 85.1374 92.5637C89.423 88.3816 92.3214 84.3652 94.8679 79.0859C98.2632 72.0469 99.6296 65.9602 99.6296 58.0723C99.6089 49.9152 98.7601 46.934 95.6132 44.0148C93.5222 42.0895 90.8515 41.1164 88.0359 41.2406C87.187 41.282 86.5038 41.282 86.5038 41.2406C86.5038 41.1578 90.6237 33.684 90.748 33.5805C90.7894 33.5391 91.514 33.3734 92.3421 33.2285C102.652 31.4066 106.689 19.7094 101.845 5.71406C101.017 3.3125 99.8987 0.973045 99.3398 0.455467C98.6773 -0.165627 97.3316 -0.124222 95.7167 0.558983ZM97.6421 7.03906C98.9671 10.7449 99.4226 13.1879 99.4226 16.666C99.4433 20.0199 99.112 21.759 97.9734 24.1398C96.255 27.7629 92.0316 29.7711 87.8288 28.9016C83.3983 28.0113 80.003 24.8644 78.9265 20.6824C78.5331 19.109 78.6366 17.5562 79.2577 15.8793C80.1894 13.4156 84.4956 10.4344 92.1972 6.91484C93.7913 6.16953 95.3855 5.44492 95.7167 5.2793C96.0687 5.11367 96.462 5.01015 96.6276 5.03085C96.814 5.05156 97.228 5.87968 97.6421 7.03906ZM55.2421 15.0926C57.4987 15.9621 59.5276 17.991 60.4593 20.2891C60.8319 21.2207 60.9148 21.8418 60.9355 23.7051C60.9355 25.8582 60.8941 26.0652 60.2523 27.4316C59.6933 28.591 59.155 29.2742 57.2296 31.1582C55.2007 33.125 54.7866 33.6633 54.0413 35.1953C52.8612 37.5969 52.53 39.0254 52.53 41.6133C52.5093 44.9879 53.3374 47.3895 55.4905 50.2465C57.3538 52.7516 59.9624 54.4699 62.7159 55.0703C64.3929 55.443 67.8917 55.2566 69.3823 54.6977C70.0655 54.4492 73.9784 52.441 78.0984 50.2051C82.2183 47.9898 86.0483 46.023 86.5866 45.8367C89.278 44.9051 92.7355 46.4371 94.1019 49.1492C95.6132 52.1305 95.7788 60.3082 94.4538 66.7883C90.7687 84.9242 76.0694 98.7332 57.6851 101.342C54.9523 101.735 48.9484 101.735 46.2362 101.342C36.4851 99.9547 27.8519 95.6691 21.1441 88.8992C14.6433 82.2949 10.5441 74.2 8.92921 64.7594C8.41164 61.7781 8.43234 54.5527 8.94992 51.6543C10.1714 44.8223 12.3866 39.0461 15.8234 33.9324C23.2558 22.7941 35.098 15.8379 48.6171 14.6164C50.8737 14.4301 54.0827 14.6578 55.2421 15.0926ZM81.1417 30.827C82.5288 31.7379 85.0753 32.918 85.655 32.918C85.7792 32.918 85.8827 32.9801 85.8827 33.0629C85.8827 33.1664 84.4956 35.7336 82.8187 38.7769L79.7546 44.3254L75.5105 46.6027C70.1484 49.5012 69.6722 49.7496 69.7757 49.5426C69.8171 49.4598 71.9909 44.9672 74.6202 39.6051C77.2288 34.2223 79.4233 29.8125 79.4855 29.8125C79.5476 29.8125 80.2929 30.268 81.1417 30.827Z" fill="#0C1638"/>
<path d="M39.7549 21.7377C35.0553 22.3795 30.5834 25.5678 28.5338 29.7291C25.035 36.851 29.6932 43.6002 37.6846 42.9998C43.4194 42.5444 49.0506 38.0518 50.4791 32.7518C50.8725 31.2819 50.7897 28.6319 50.3135 27.2655C48.9057 23.2698 44.6823 21.0752 39.7549 21.7377ZM43.8541 26.4373C45.4276 27.0791 46.3592 28.4455 46.3592 30.1018C46.3592 34.0147 41.9288 38.2174 37.3327 38.6522C33.8959 38.9627 31.2873 36.7475 31.7428 33.8698C32.4467 29.5428 37.7053 25.5678 42.0944 26.0233C42.6741 26.0854 43.4608 26.2717 43.8541 26.4373Z" fill="#0C1638"/>
<path d="M19.3634 43.498C15.347 44.4503 12.4486 48.8187 13.1525 52.8972C13.9392 57.4519 17.4173 60.2468 22.0341 59.9984C23.4005 59.9363 23.9802 59.7913 25.0568 59.2531C26.7544 58.4249 28.1622 56.9964 29.0111 55.2781C29.6322 54.0359 29.6736 53.7874 29.6736 51.7585C29.6736 49.9574 29.5908 49.3777 29.1974 48.4046C28.6384 47.0175 27.065 45.1956 25.7607 44.4296C24.0216 43.4152 21.3716 43.0218 19.3634 43.498ZM22.9036 47.9285C24.6013 48.6531 25.5122 50.1437 25.388 51.9863C25.181 54.7605 22.3447 56.4581 19.7982 55.3195C18.2454 54.6363 17.1689 52.7316 17.4587 51.1788C17.9556 48.5081 20.5642 46.9554 22.9036 47.9285Z" fill="#0C1638"/>
<path d="M80.7066 56.3335C78.2636 56.8097 75.8 58.7351 74.7855 60.971C71.4109 68.3206 78.9675 75.6081 86.2343 72.0472C87.7457 71.3019 89.1328 69.8526 89.9609 68.155C90.4992 67.0784 90.5406 66.7886 90.5406 64.594C90.5406 62.3995 90.4992 62.1097 89.9609 61.0331C88.7187 58.4866 86.4207 56.7476 83.7085 56.3128C82.28 56.0851 81.9902 56.0851 80.7066 56.3335ZM83.2945 60.6812C85.1578 61.1987 86.2964 62.7101 86.2964 64.6355C86.2964 66.5194 85.0957 68.0101 83.1703 68.5276C81.2863 69.0452 78.9675 67.5753 78.4707 65.5671C77.8496 63.1655 79.6921 60.7226 82.2593 60.4741C82.3835 60.4741 82.839 60.5569 83.2945 60.6812Z" fill="#0C1638"/>
<path d="M24.5392 66.8715C22.9036 67.0786 20.9368 68.093 19.7567 69.3559C15.1399 74.304 17.8106 82.2747 24.477 83.4547C28.1208 84.0758 31.7852 82.1505 33.4208 78.7137C34.1868 77.1403 34.3524 74.304 33.8142 72.6477C32.4685 68.5899 28.8454 66.3333 24.5392 66.8715ZM27.7481 71.6747C29.5079 72.5442 30.3153 75.1735 29.3837 76.9747C28.1001 79.4797 25.0153 79.9559 23.0278 77.9684C21.3509 76.3122 21.3509 74.0348 23.0485 72.3579C24.3942 71.0122 25.9884 70.7637 27.7481 71.6747Z" fill="#0C1638"/>
<path d="M66.2764 76.2693C62.3843 77.5322 59.9206 81.6107 60.6038 85.6271C61.4319 90.3268 65.7382 93.4115 70.3135 92.5627C73.0257 92.0658 75.2823 90.3268 76.4831 87.8217C77.2491 86.2482 77.4147 83.4119 76.8764 81.7557C76.0897 79.3748 74.6405 77.7185 72.4253 76.6627C71.4729 76.1865 70.9553 76.1037 69.2163 76.0416C67.8706 76.0002 66.8354 76.083 66.2764 76.2693ZM71.1624 81.0103C73.3776 82.4803 73.3776 85.9584 71.1624 87.5525C69.5268 88.7533 67.56 88.567 66.0901 87.0764C64.9928 85.9791 64.6202 84.8197 64.9721 83.4533C65.6968 80.5963 68.7194 79.3955 71.1624 81.0103Z" fill="#0C1638"/>
<path d="M42.718 80.7425C40.4406 81.4878 38.536 83.3304 37.625 85.6491C37.0246 87.1604 36.9832 90.0589 37.5215 91.5081C38.9707 95.4624 43.2977 97.8225 47.3348 96.8909C49.7363 96.3319 51.9309 94.5929 53.0074 92.3776C53.6492 91.0733 53.6906 90.8663 53.6906 88.7132C53.6906 86.5393 53.6492 86.353 53.0074 85.0487C52.1586 83.3304 50.7922 81.9639 49.0531 81.1151C47.9145 80.5354 47.4797 80.4319 45.8442 80.3905C44.3949 80.3491 43.6703 80.4319 42.718 80.7425ZM47.0242 84.9659C47.8317 85.3179 48.9289 86.4358 49.2188 87.2225C49.9848 89.2307 48.9289 91.5909 46.9207 92.4397C45.8235 92.8952 44.9125 92.8331 43.691 92.212C41.3723 91.0526 40.7512 88.2991 42.3453 86.1667C43.3391 84.8417 45.4508 84.2827 47.0242 84.9659Z" fill="#0C1638"/>
</g>
<defs>
<filter id="filter0_d_1548_1676" x="-3" y="0" width="114" height="114" filterUnits="userSpaceOnUse" color-interpolation-filters="sRGB">
<feFlood flood-opacity="0" result="BackgroundImageFix"/>
<feColorMatrix in="SourceAlpha" type="matrix" values="0 0 0 0 0 0 0 0 0 0 0 0 0 0 0 0 0 0 127 0" result="hardAlpha"/>
<feOffset dy="4"/>
<feGaussianBlur stdDeviation="2"/>
<feComposite in2="hardAlpha" operator="out"/>
<feColorMatrix type="matrix" values="0 0 0 0 0 0 0 0 0 0 0 0 0 0 0 0 0 0 0.25 0"/>
<feBlend mode="normal" in2="BackgroundImageFix" result="effect1_dropShadow_1548_1676"/>
<feBlend mode="normal" in="SourceGraphic" in2="effect1_dropShadow_1548_1676" result="shape"/>
</filter>
</defs>
</svg>
