<svg width="106" height="106" viewBox="0 0 106 106" fill="none" xmlns="http://www.w3.org/2000/svg">
<g opacity="0.2">
<path d="M31.3543 4.56274C29.0793 7.14696 27.0031 10.9018 26.3846 13.5302C25.5232 17.1305 26.5834 21.3933 28.9468 23.9555L29.8303 24.9052L27.2019 27.5336L24.5735 30.1399L24.1538 28.9472C23.2482 26.3188 20.7744 23.6462 17.1079 21.4154C12.9113 18.8533 11.4094 18.8091 10.7026 21.2608C9.70864 24.7064 9.39942 29.654 10.04 32.1278C10.8572 35.2421 13.2426 38.2902 15.9373 39.6375C16.7987 40.0572 17.6601 40.4106 17.881 40.4106C18.0798 40.4106 18.3006 40.4547 18.3669 40.521C18.4111 40.5873 18.1019 41.7579 17.638 43.1273C17.1742 44.4746 16.6883 46.2637 16.5336 47.081C16.379 47.9203 16.2023 48.5829 16.114 48.5829C16.0477 48.5829 15.6281 48.2295 15.2084 47.7878C12.9113 45.4244 8.27296 43.9445 3.06034 43.9445C1.42587 43.9445 1.07248 44.0108 0.542378 44.4305C-0.053981 44.8943 -0.053981 44.9606 0.0564559 46.4625C0.233155 48.5608 1.11665 51.5647 2.33146 54.0827C4.07636 57.7271 7.03607 60.0904 10.8793 60.8635C12.2266 61.1506 12.9113 61.1727 14.0819 60.996C14.8992 60.8856 15.5839 60.7972 15.606 60.8193C15.606 60.8193 15.8048 61.7912 16.0035 62.9397C16.1802 64.0882 16.5557 65.8111 16.7987 66.7829C17.0417 67.7327 17.1963 68.5499 17.1742 68.5941C17.13 68.6382 16.5999 68.5057 16.0035 68.329C14.5016 67.8652 10.813 68.0419 8.71471 68.7045C6.68267 69.323 2.92782 71.112 2.04432 71.863C1.18291 72.5919 1.09456 73.4975 1.7351 74.5356C2.41981 75.64 5.97588 79.0414 7.58825 80.1237C9.9516 81.6919 11.4094 82.1778 14.0157 82.3324C17.2846 82.487 19.5596 81.8244 21.7021 80.1237C22.1659 79.7482 22.6298 79.5494 22.7181 79.6378C22.8065 79.7482 23.3145 80.4329 23.8667 81.1397C24.3968 81.8686 25.6116 83.2822 26.5392 84.2761L28.262 86.0652L26.8705 86.3302C23.9992 86.8824 20.2885 89.3341 17.4834 92.4926C15.9815 94.1713 15.6502 94.8118 15.8268 95.6953C15.9815 96.4904 16.6662 96.9985 19.3167 98.3016C24.6839 100.908 29.256 101.239 33.0771 99.2955C35.3521 98.1249 37.3841 95.9383 38.1351 93.84C38.356 93.2436 38.5769 92.7577 38.6431 92.7577C38.7315 92.7577 39.5929 93.0669 40.5868 93.4203C41.6028 93.7958 42.7072 94.0829 43.0827 94.0829C44.5184 94.0829 45.3798 92.1392 44.4521 91.0349C44.2312 90.7698 43.414 90.3502 42.6188 90.1072C34.4244 87.4125 27.1798 80.9851 23.0715 72.7023C17.1963 60.8635 18.1681 46.595 25.6116 35.3525C27.4227 32.6358 31.0009 28.9472 33.8502 26.9152C35.0871 26.0096 36.6111 24.7727 37.2516 24.1322C39.88 21.5258 41.0286 17.0863 40.0788 13.3535C39.4162 10.7472 37.1191 6.72729 35.0429 4.47438C34.2698 3.63506 34.0489 3.52463 33.2317 3.52463C32.3703 3.52463 32.1936 3.63506 31.3543 4.56274ZM34.557 10.2613C35.838 12.2933 36.6553 14.5462 36.6553 16.0261C36.6553 18.0139 35.9043 19.9135 34.579 21.3491C33.4084 22.6081 33.3863 22.6081 32.79 22.2989C31.9948 21.8792 30.8021 20.2448 30.3603 18.9858C29.5431 16.6004 29.7419 14.4358 31.0671 11.8074C31.9065 10.1508 33.1434 8.36176 33.3421 8.49429C33.4526 8.56055 34.0048 9.35569 34.557 10.2613ZM16.1361 25.2807C18.1681 26.6501 19.9351 28.5938 20.5315 30.1841C21.5033 32.7242 20.9511 36.6778 19.6038 36.8324C18.0577 37.0091 15.363 34.8666 14.2145 32.5695C13.6181 31.3106 13.5739 31.0897 13.5739 28.4834C13.5739 26.9593 13.6623 25.347 13.7506 24.8831C13.9715 23.8671 14.0157 23.8892 16.1361 25.2807ZM8.3834 48.3841C10.5259 48.9584 11.9836 49.7756 13.0438 50.9683C14.2807 52.404 14.8771 53.7513 14.9654 55.4742C15.0538 56.954 15.0538 56.954 14.4353 57.1307C13.3089 57.4399 11.4094 57.2853 10.2829 56.7994C7.25694 55.4521 5.64456 53.3096 4.31932 48.8479L3.98801 47.6552L5.35743 47.8098C6.1084 47.8761 7.47782 48.1411 8.3834 48.3841ZM15.363 72.106C15.9594 72.2827 16.9091 72.7244 17.4834 73.0778C18.5878 73.7846 20.0676 75.5958 20.0897 76.2363C20.0897 76.7664 18.0356 78.0917 16.7103 78.423C15.0538 78.8205 12.6904 78.5776 11.2548 77.8487C9.88534 77.1419 7.96374 75.7283 6.85937 74.5798L6.1084 73.7846L7.30112 73.2545C8.47175 72.7465 10.2387 72.1281 11.1443 71.9293C12.1383 71.7084 14.3249 71.7967 15.363 72.106ZM32.5249 90.7256C33.298 91.1011 34.1152 91.6312 34.3361 91.8742C34.7337 92.2938 34.7337 92.338 34.314 93.1111C33.4305 94.7676 31.1555 96.2917 28.9247 96.6892C26.9589 97.0426 24.2642 96.4904 21.7463 95.2315L20.6419 94.6793L22.1659 93.2657C24.8827 90.7698 26.9589 89.8201 29.521 89.9526C30.7579 90.0188 31.4426 90.1955 32.5249 90.7256Z" fill="#0C1638"/>
<path d="M70.9553 4.45273C68.8791 6.72773 66.6041 10.7476 65.9194 13.3539C64.9696 17.0867 66.1182 21.5263 68.7466 24.1326C69.3871 24.7731 70.9111 26.0321 72.1701 26.9377C86.0631 36.9654 90.7898 56.9986 82.9267 72.7028C81.1155 76.3472 79.2823 78.8431 76.19 81.9574C73.1199 85.0275 70.4031 86.9933 66.9133 88.6499C64.0199 90.0193 61.9657 90.6377 57.8133 91.4329C53.7713 92.228 50.8116 93.1999 48.4262 94.5693C45.4665 96.2479 42.6172 99.2739 42.6172 100.732C42.6172 101.041 42.816 101.571 43.081 101.902C43.4344 102.366 43.7216 102.477 44.4725 102.477C45.4002 102.477 45.4885 102.41 46.615 100.997C48.8679 98.1916 52.424 96.3363 57.3716 95.3865C61.1485 94.6797 63.5781 94.0613 65.4555 93.3986C66.4274 93.0452 67.2888 92.7581 67.3551 92.7581C67.4434 92.7581 67.6201 93.1557 67.7747 93.6195C68.1723 94.9668 69.6742 97.0431 70.9553 98.0149C75.2623 101.306 80.2983 101.394 86.6815 98.302C89.332 96.9989 90.0167 96.4909 90.1713 95.6957C90.348 94.8122 90.0167 94.1717 88.5148 92.4931C85.6655 89.2904 82.0211 86.905 79.1056 86.3307L77.692 86.0656L79.0172 84.7183C80.4087 83.2826 82.4849 80.853 83.0592 79.9474L83.4126 79.4173L84.1415 80.0137C85.9085 81.5156 88.4043 82.377 91.0327 82.377C95.0527 82.377 97.6369 81.1843 101.458 77.5178C105.875 73.2991 105.831 72.4819 101.038 70.2069C99.8235 69.6326 98.1449 68.9479 97.2835 68.6829C95.2294 68.0202 91.7837 67.8435 90.0609 68.3074C89.3541 68.4841 88.7798 68.5945 88.7798 68.5282C88.7798 68.4841 88.9786 67.6668 89.2216 66.7392C89.4425 65.7894 89.7959 64.1108 89.9725 62.9622C90.1713 61.8137 90.348 60.8639 90.3701 60.8418C90.4143 60.7977 91.099 60.886 91.9162 60.9964C93.0869 61.1731 93.7716 61.1511 95.1189 60.8639C98.9621 60.0909 101.922 57.7275 103.667 54.0831C104.882 51.5651 105.765 48.5612 105.942 46.4629C106.052 44.961 106.052 44.8947 105.456 44.4309C104.926 44.0112 104.572 43.945 102.938 43.945C97.7031 43.945 93.0869 45.4027 90.7898 47.7882C89.9284 48.6717 89.6633 48.76 89.6633 48.1858C89.6633 47.5673 88.6031 43.6137 88.0068 42.0676C87.4767 40.6319 87.4767 40.411 88.1172 40.411C88.3381 40.411 89.1995 40.0576 90.0609 39.6379C92.7556 38.2906 95.141 35.2425 95.9582 32.1282C96.6209 29.544 96.1349 23.1607 95.0747 20.6207C94.3459 18.8537 92.9985 19.0083 89.1111 21.3054C85.2679 23.5804 82.8162 26.1646 81.8002 29.036L81.4247 30.1625L78.7963 27.534L76.1679 24.9056L77.0735 23.9338C78.973 21.8576 80.1437 18.2794 79.8786 15.2093C79.6357 12.2717 78.0012 8.80394 75.3065 5.42458C73.915 3.70176 73.8267 3.63549 72.8548 3.56923C71.9051 3.50297 71.7946 3.56923 70.9553 4.45273ZM74.7323 11.4986C76.0133 13.9945 76.3446 15.4964 76.0354 17.3518C75.9029 18.1248 75.5716 19.2292 75.2844 19.8035C74.7764 20.8637 73.2524 22.5202 72.7665 22.5202C72.3026 22.5202 70.4473 20.3556 69.9393 19.2513C69.5638 18.434 69.4755 17.7714 69.4755 16.2253C69.4534 13.9061 69.9172 12.603 71.6621 9.90831L72.7002 8.31802L73.2082 8.95856C73.4954 9.31195 74.1801 10.4605 74.7323 11.4986ZM92.2476 24.8836C92.3359 25.3474 92.4243 26.9598 92.4243 28.4838C92.4243 31.0901 92.3801 31.311 91.7837 32.57C90.6352 34.8892 88.3823 36.7003 86.5932 36.7445C85.8643 36.7666 85.798 36.7003 85.3784 35.6622C84.782 34.1161 84.8041 31.8411 85.4446 30.1845C86.0852 28.5501 87.8522 26.6285 90.0609 25.1707C91.0107 24.5743 91.8279 24.0663 91.9162 24.0663C92.0046 24.0663 92.1592 24.4418 92.2476 24.8836ZM101.679 48.8484C101.06 50.9025 100.066 53.0892 99.2272 54.1935C97.7252 56.1372 94.3679 57.6833 92.4684 57.3078C90.9665 56.9986 90.9886 57.0207 90.9886 55.7838C90.9886 52.7799 93.0869 49.9748 96.2233 48.8042C97.4381 48.3625 100.287 47.7661 101.414 47.7219L102.01 47.6998L101.679 48.8484ZM96.5104 72.3935C97.173 72.6365 98.2111 73.0562 98.8075 73.2991L99.8898 73.785L99.1388 74.5581C98.0344 75.7287 96.1349 77.1423 94.7434 77.8491C93.1973 78.6443 90.7677 78.8431 88.9786 78.335C87.6092 77.9154 85.9085 76.7668 85.9085 76.2367C85.9306 75.6404 87.3662 73.8292 88.3602 73.1666C89.9725 72.1064 91.3199 71.753 93.4182 71.8634C94.5005 71.9076 95.8036 72.1506 96.5104 72.3935ZM80.4529 90.8365C81.4247 91.3224 82.6837 92.228 83.6997 93.1557L85.3563 94.6797L84.2519 95.2319C80.2099 97.286 76.433 97.2639 73.5616 95.1656C72.6339 94.503 71.2645 92.6256 71.3971 92.2059C71.5296 91.8084 73.5395 90.5715 74.6218 90.2181C76.3446 89.6659 78.5534 89.8868 80.4529 90.8365Z" fill="#0C1638"/>
<path d="M51.7411 26.8932C51.5202 27.092 46.3517 36.7662 45.5345 38.3565C43.8117 41.6696 43.6571 42.531 44.6068 43.282C45.7995 44.2318 46.7527 44.2318 47.7246 42.4427C48.0559 41.8242 52.9338 32.7022 53.0442 32.7242C53.1546 32.7684 54.7228 35.6177 56.5119 39.0854C58.3231 42.5531 60.0017 45.5128 60.2447 45.6675C60.5539 45.8662 74.0051 48.34 74.9328 48.3621C75.0432 48.3621 72.7903 50.7696 69.919 53.7073L64.7063 59.0745V60.0684C64.7063 60.8636 66.0316 70.4495 66.5838 73.7184L66.7163 74.4252L60.2005 71.1784C56.4015 69.2789 53.4418 67.9536 53.0663 67.9536C52.7129 67.9536 49.6648 69.301 45.8658 71.1784L39.2838 74.4031L39.4163 73.6963C40.0789 69.9415 41.4483 59.715 41.3158 59.3616C41.2275 59.1408 38.842 56.5565 36.0148 53.641C33.1876 50.7476 30.9568 48.3621 31.0673 48.3621C31.7741 48.3621 45.3357 45.9104 45.6891 45.7337C46.2413 45.4245 49.0243 40.1898 49.0243 39.4167C49.0243 38.7099 47.942 37.5393 47.2794 37.5393C46.2192 37.5393 45.7112 38.0473 44.6068 40.1898C44.0105 41.3825 43.392 42.3985 43.2374 42.4427C43.0828 42.509 39.1733 43.1937 34.5571 43.9667C25.2141 45.5349 25.1699 45.5349 25.1699 47.1694C25.1699 48.075 25.3245 48.2517 33.7177 56.7553L37.5389 60.6206L36.3241 68.8592C35.6614 73.3871 35.1092 77.407 35.1092 77.8046C35.1092 78.7985 35.8823 79.5053 36.9425 79.5053C37.5609 79.5053 39.6592 78.5556 45.3799 75.7063L53 71.8852L60.6202 75.7063C68.8588 79.8146 69.4551 80.0133 70.4049 78.9973C70.692 78.6881 70.8908 78.2022 70.8908 77.7825C70.8908 77.3849 70.3386 73.365 69.676 68.8592L68.4612 60.6206L72.3928 56.6449C80.6534 48.2738 80.8301 48.075 80.8301 47.1694C80.8301 45.5349 80.786 45.5349 71.5534 43.9888C67.0034 43.2158 63.094 42.531 62.8952 42.4869C62.6743 42.4206 60.9294 39.2842 58.5881 34.8225C56.4236 30.6701 54.4799 27.092 54.2811 26.8932C53.751 26.3631 52.2491 26.3631 51.7411 26.8932Z" fill="#0C1638"/>
<path d="M59.6248 97.1089C59.4481 97.1752 59.0726 97.4402 58.8075 97.6832C57.9682 98.4341 58.1449 99.3618 59.3597 100.974C60.3757 102.277 60.4862 102.366 61.4359 102.432C62.3194 102.498 62.5182 102.41 62.9158 101.902C63.5563 101.107 63.4901 100.312 62.7391 99.1409C61.6789 97.4844 60.5524 96.7555 59.6248 97.1089Z" fill="#0C1638"/>
</g>
</svg>
