<svg width="106" height="106" viewBox="0 0 106 106" fill="none" xmlns="http://www.w3.org/2000/svg">
<path opacity="0.2" fill-rule="evenodd" clip-rule="evenodd" d="M25.1045 0.373748C26.2155 -0.334309 27.6896 -0.0066368 28.3969 1.10562C33.0077 8.35642 42 28.5062 42 52.3998C42 76.2861 33.0125 97.2188 28.4284 104.843C27.7492 105.973 26.2838 106.338 25.1554 105.658C24.0269 104.978 23.6627 103.511 24.3419 102.381C28.5779 95.3355 37.2304 75.2449 37.2304 52.3998C37.2304 29.5621 28.5826 10.289 24.3734 3.66972C23.6661 2.55746 23.9934 1.0818 25.1045 0.373748Z" fill="#0C1638"/>
<path opacity="0.2" fill-rule="evenodd" clip-rule="evenodd" d="M80.8955 0.373748C79.7845 -0.334309 78.3104 -0.0066368 77.6031 1.10562C72.9923 8.35642 64 28.5062 64 52.3998C64 76.2861 72.9875 97.2188 77.5716 104.843C78.2508 105.973 79.7162 106.338 80.8446 105.658C81.9731 104.978 82.3373 103.511 81.6581 102.381C77.4221 95.3355 68.7696 75.2449 68.7696 52.3998C68.7696 29.5621 77.4174 10.289 81.6266 3.66972C82.3339 2.55746 82.0066 1.0818 80.8955 0.373748Z" fill="#0C1638"/>
<path opacity="0.2" fill-rule="evenodd" clip-rule="evenodd" d="M53.5 -1.09918e-07C54.8807 -1.70624e-07 56 1.06887 56 2.38739L56 103.613C56 104.931 54.8807 106 53.5 106C52.1193 106 51 104.931 51 103.613L51 2.38739C51 1.06887 52.1193 -4.9212e-08 53.5 -1.09918e-07Z" fill="#0C1638"/>
<path opacity="0.2" fill-rule="evenodd" clip-rule="evenodd" d="M90.59 41.7143C91.5044 42.6577 91.4945 44.1773 90.5678 45.1083L85.1019 50.6H103.643C104.945 50.6 106 51.6745 106 53C106 54.3255 104.945 55.4 103.643 55.4H85.1019L90.5678 60.8917C91.4945 61.8227 91.5044 63.3423 90.59 64.2857C89.6756 65.2292 88.1832 65.2393 87.2565 64.3083L77.7015 54.7083C77.2527 54.2573 77 53.6421 77 53C77 52.3579 77.2527 51.7427 77.7015 51.2917L87.2565 41.6917C88.1832 40.7607 89.6756 40.7708 90.59 41.7143Z" fill="#0C1638"/>
<path opacity="0.2" fill-rule="evenodd" clip-rule="evenodd" d="M15.41 41.7143C14.4956 42.6577 14.5055 44.1773 15.4322 45.1083L20.8981 50.6H2.35719C1.05535 50.6 0 51.6745 0 53C0 54.3255 1.05535 55.4 2.35719 55.4H20.8981L15.4322 60.8917C14.5055 61.8227 14.4956 63.3423 15.41 64.2857C16.3244 65.2292 17.8168 65.2393 18.7435 64.3083L28.2985 54.7083C28.7473 54.2573 29 53.6421 29 53C29 52.3579 28.7473 51.7427 28.2985 51.2917L18.7435 41.6917C17.8168 40.7607 16.3244 40.7708 15.41 41.7143Z" fill="#0C1638"/>
</svg>
