<svg width="106" height="106" viewBox="0 0 106 106" fill="none" xmlns="http://www.w3.org/2000/svg">
<g opacity="0.2">
<path d="M39.7294 3.04465C32.4625 4.69622 26.1498 6.23769 25.7094 6.49461L24.8652 6.97173V17.9822C24.8652 33.8373 25.5626 38.3883 29.0859 45.7287C31.288 50.3898 33.5268 53.5461 37.2704 57.3264C41.7113 61.8774 47.033 65.4375 52.0245 67.2726L53.7127 67.8965L56.759 66.6119C59.7318 65.3641 63.5121 63.1253 65.7876 61.3269C68.2833 59.345 70.7423 56.7759 70.5221 56.4089C70.3753 56.1887 70.412 56.1153 70.6322 56.2254C71.0726 56.4823 72.6508 54.8307 74.4859 52.2616C78.5598 46.4994 81.4959 38.6086 82.0831 31.8555C82.4868 27.1209 82.6336 8.95362 82.3033 7.55896C81.973 6.3478 81.3858 6.12759 73.3114 4.36591C66.1913 2.78773 57.493 0.805847 55.3276 0.292023C54.6303 0.108521 53.7861 -0.00158691 53.4925 -0.00158691C53.1989 0.0351105 46.9963 1.39307 39.7294 3.04465ZM57.1994 4.69622C58.8877 5.09994 63.9892 6.23769 68.5402 7.26534C73.0912 8.29299 77.2018 9.13713 77.6422 9.13713H78.5231L78.3396 21.5056C78.1927 32.5528 78.1193 34.2044 77.422 36.6634C75.4034 44.1505 72.2838 49.6191 66.9987 54.9408C62.8515 59.1248 56.0616 63.4556 53.676 63.4556C52.575 63.4556 48.3176 61.3636 45.6751 59.5285C38.1145 54.2802 32.4992 46.3159 30.0769 37.5075C29.1226 33.9474 29.1226 33.7272 29.0859 21.6524V9.39404L39.5459 7.04513C45.3081 5.76057 50.5931 4.58612 51.2904 4.40261C53.2356 3.92549 53.8228 3.92549 57.1994 4.69622Z" fill="#0C1638"/>
<path d="M51.5849 8.2211C51.4748 8.33121 49.0891 8.91844 46.2998 9.50566C35.0691 11.8913 33.5643 12.295 33.0138 13.1024C32.7202 13.5428 32.6101 14.2035 32.7569 14.6072C33.234 16.1854 33.9681 16.1854 41.7855 14.4237C54.9247 11.4509 53.4566 11.6344 56.9066 12.4785C58.5582 12.8455 62.3017 13.7264 65.2379 14.387L70.5596 15.5614L70.6697 23.2688C70.7798 31.9304 70.4495 34.2793 68.3575 39.4542C65.8251 45.7669 60.43 51.8227 54.7412 54.7588C53.6769 55.3093 53.5301 55.3093 52.1721 54.5753C50.1535 53.511 46.9972 50.9785 45.0153 48.8865C40.4276 44.0419 37.7483 38.5 36.9409 32.0772C36.3904 27.8932 36.2069 27.3794 34.9957 26.939C34.1149 26.6453 33.858 26.7187 33.234 27.4895C32.6468 28.2235 32.5734 28.7006 32.7569 30.7559C33.6745 40.0047 38.5191 48.9967 45.6759 54.7588C48.4285 56.9609 52.6125 59.4199 53.6769 59.4199C54.0439 59.4199 55.4385 58.796 56.7598 58.062C66.2655 52.7769 73.1654 42.4271 74.4133 31.7102C74.5968 29.8751 74.7803 25.0672 74.7803 20.9566C74.7803 14.02 74.7436 13.5061 74.0463 12.8088C73.6426 12.4051 73.1654 12.0748 73.0186 12.0748C72.6516 12.0748 68.1006 11.0838 60.3566 9.35886C54.9614 8.1477 52.062 7.78069 51.5849 8.2211Z" fill="#0C1638"/>
<path d="M33.3083 20.1503C32.9045 20.554 32.5742 21.1045 32.5742 21.3614C32.5742 22.0588 33.3817 22.9763 34.2258 23.2332C36.2811 23.8205 37.3087 20.4072 35.2901 19.6365C34.3726 19.3062 34.079 19.3796 33.3083 20.1503Z" fill="#0C1638"/>
<path d="M61.2003 23.6729C55.6584 28.4808 50.1531 33.5824 50.1531 33.5824C49.4191 34.243 49.3824 34.2063 48.4282 32.9951C46.2261 30.1691 44.9415 28.958 44.1341 28.958C43.1064 28.958 42.1155 29.8388 42.1155 30.7563C42.1155 31.1234 43.5468 33.0685 45.2718 35.1238C47.6574 37.9499 48.6484 38.8674 49.309 38.8674C49.8595 38.8674 51.034 38.0967 52.502 36.7387C63.6594 26.5723 65.9716 24.4069 66.1551 23.8197C66.2652 23.4527 66.1551 22.7921 65.8982 22.3884C65.0907 21.0671 63.7695 21.4341 61.2003 23.6729Z" fill="#0C1638"/>
<path d="M14.0393 41.0325C12.3144 41.8399 11.1399 43.0144 10.5527 44.5558C10.0756 45.8037 8.46069 61.2918 8.13037 68.2284C7.83676 73.3299 8.02027 73.9172 10.3325 76.8533C11.7271 78.5783 13.2319 80.5235 21.1228 90.8366L27.0317 98.5807L27.1418 101.847C27.2519 104.93 27.2886 105.114 28.2429 105.627C29.1237 106.141 29.2705 106.141 29.9679 105.517C30.6652 104.893 30.7386 104.38 30.7386 100.856C30.7386 97.2594 30.6652 96.819 29.8945 95.8648C28.9035 94.727 26.8482 92.0111 20.3153 83.4963C12.9016 73.7704 12.0207 72.5592 11.8005 71.6784C11.5069 70.5773 13.8191 46.6111 14.2595 45.767C15.1404 44.1521 17.4893 43.9319 18.8106 45.3266L19.6914 46.2808L19.8015 57.3647L19.9116 68.4853L21.0127 70.1736C23.6185 74.1741 29.4907 81.4777 30.2982 81.6979C31.3625 81.9548 32.5737 80.9272 32.5737 79.7527C32.5737 79.2756 32.0966 78.3581 31.546 77.6974C28.9402 74.6879 28.0961 73.1097 28.353 71.9353C28.4998 71.3113 28.9035 70.614 29.2705 70.4305C30.3349 69.8433 32.17 69.9901 32.7205 70.6874C33.0141 71.0544 33.6747 71.8252 34.1519 72.4491C37.1981 76.1927 42.3363 83.3495 42.997 84.7442C43.6943 86.2489 43.7677 87.1665 43.8778 95.0206C43.9145 99.7551 44.0613 104.013 44.1347 104.453C44.3916 105.627 45.5294 106.141 46.7038 105.591L47.6581 105.15L47.548 95.2408L47.4379 85.2947L46.3001 82.8724C45.2358 80.6703 38.9965 72.0454 35.9135 68.522C33.1976 65.4391 28.9769 65.2189 26.3711 68.0082C25.2701 69.1827 24.8296 69.2194 24.1323 68.1183C23.6919 67.4577 23.5451 65.1822 23.3983 56.1169C23.2515 46.6478 23.1047 44.7393 22.6275 43.8218C21.8201 42.3904 20.9026 41.583 19.251 40.8857C17.4893 40.1516 15.8377 40.1883 14.0393 41.0325Z" fill="#0C1638"/>
<path d="M87.9185 40.7017C86.4138 41.1421 84.4686 42.7937 83.808 44.1883C83.3308 45.216 83.2207 47.051 83.2207 55.8961C83.2207 64.2641 83.1106 66.6864 82.7069 67.6774C82.1197 69.1087 81.2388 69.329 80.6883 68.2646C80.1378 67.3104 77.3852 66.0258 75.807 66.0258C74.1554 66.0258 72.2469 66.7965 71.2193 67.9343C69.0906 70.2098 61.4199 80.8166 60.3556 82.9086L59.1811 85.2575L59.071 95.0935L58.9609 104.893L59.8785 105.517C60.7593 106.067 60.9061 106.067 61.7136 105.517L62.6311 104.93L62.7412 95.8643C62.8513 87.2027 62.888 86.6521 63.7322 84.8538C64.8699 82.3213 73.6416 70.7603 74.8895 70.1364C75.6969 69.7327 76.0272 69.7694 76.9815 70.2465C79.1835 71.3843 78.8165 73.1826 75.6969 77.0363C73.9719 79.165 73.6783 80.3028 74.6325 81.2203C75.44 82.0644 76.5043 81.9543 77.4586 80.9634C79.1468 79.2017 85.276 70.9071 86.0835 69.3657C86.8542 67.7875 86.8909 67.3838 86.8909 57.3275C86.8909 44.9224 87.0377 44.3718 90.1573 44.3718C92.0658 44.3718 92.6898 45.583 93.1302 50.0606C93.3137 52.2994 93.7541 56.6669 94.0477 59.7865C94.378 62.9062 94.7451 66.98 94.8552 68.7784L95.0754 72.0816L91.6988 76.4858C89.827 78.9081 87.7717 81.624 87.1478 82.4682C86.4872 83.349 83.6979 86.9825 80.9452 90.5425L75.8804 97.0387L75.9905 101.076C76.0639 104.966 76.1006 105.113 76.9815 105.553C77.7155 105.921 78.0458 105.921 78.633 105.517C79.257 105.113 79.3671 104.563 79.4772 101.847L79.5873 98.6903L83.9915 92.8914C86.4138 89.7351 88.8361 86.542 89.3866 85.8447C96.5434 76.706 98.2684 74.247 98.4886 73.1092C98.6354 72.3752 98.6354 69.9529 98.5253 67.7141C98.2317 62.0253 96.8003 47.051 96.3966 45.3995C95.4791 41.8027 91.5153 39.6006 87.9185 40.7017Z" fill="#0C1638"/>
</g>
</svg>
