<svg width="106" height="106" viewBox="0 0 106 106" fill="none" xmlns="http://www.w3.org/2000/svg">
<g opacity="0.2">
<path d="M25.3305 5.42293C22.4472 5.99501 19.358 8.37485 18.1452 10.9606C14.7356 18.2146 20.2504 26.3152 28.168 25.6973C33.3624 25.3083 37.2296 21.3724 37.5958 16.1551C38.0763 9.42747 32.0123 4.1186 25.3305 5.42293ZM29.129 9.63341C32.5615 10.6631 34.5294 14.9194 32.9734 18.0086C31.9437 20.0223 29.4723 21.647 27.3899 21.647C24.9643 21.647 22.2412 19.6333 21.5548 17.2992C21.0971 15.7661 21.0971 15.1711 21.5548 13.6379C22.0353 12.0132 23.8431 10.1597 25.4449 9.6563C26.9094 9.22152 27.7103 9.22152 29.129 9.63341Z" fill="#0C1638"/>
<path d="M86.9776 14.6219C86.4055 15.1025 86.0394 16.4526 82.4925 31.1435C80.3872 39.9535 78.6481 47.5278 78.6253 47.9854C78.6253 49.1296 79.2202 49.7932 80.3644 49.9534C81.1195 50.0449 81.3941 49.9763 81.8975 49.5415C82.4467 49.0609 82.6756 48.3058 83.8884 43.1571C84.6664 39.9535 85.33 37.1389 85.3986 36.9329C85.4902 36.6126 85.8563 36.91 86.9776 38.1915L88.4421 39.8391L88.465 48.8092V57.7794L73.385 57.848L58.3051 57.9167L57.7101 58.4659C56.9092 59.221 56.8864 60.7084 57.6415 61.4178C58.1678 61.8983 58.3509 61.9212 63.4767 61.9212H68.7855V79.3123V96.7034H64.6666C60.5705 96.7034 60.5248 96.7034 59.9756 97.2755C59.4035 97.8247 59.2204 98.946 59.5408 99.7927C59.9527 100.822 59.7696 100.822 80.7763 100.822H100.57L101.165 100.296C101.508 99.9986 101.806 99.4494 101.874 98.9689C101.989 98.3281 101.897 98.0307 101.394 97.4357C100.799 96.7263 100.73 96.7034 98.8539 96.7034H96.9317V79.3123V61.9212H98.8768C100.501 61.9212 100.89 61.8526 101.279 61.4635C101.897 60.8457 102.08 59.9761 101.714 59.1524C101.257 58.0082 100.433 57.8023 96.2452 57.8023H92.5839V48.0083V38.1915L89.7235 34.9192C88.1446 33.1115 86.8632 31.4867 86.8632 31.3037C86.8632 31.0977 87.6412 27.7339 88.5794 23.798C89.5176 19.8622 90.2956 16.3839 90.2956 16.0407C90.2956 15.194 89.1515 14.0956 88.259 14.0956C87.87 14.0956 87.3208 14.3245 86.9776 14.6219ZM92.8127 79.3123V96.7034H82.8586H72.9045V79.3123V61.9212H82.8586H92.8127V79.3123Z" fill="#0C1638"/>
<path d="M5.23917 27.7119C4.85016 27.8721 4.43827 28.3069 4.27809 28.6959C4.00349 29.3137 4.09502 29.9087 5.03323 33.959C8.35127 48.3066 10.2048 61.1898 10.2048 69.954C10.2048 73.7984 9.86155 73.5924 16.4519 73.5924H21.6463L21.6006 82.677L21.5319 91.7844L16.8638 94.4389C14.3009 95.8805 12.0583 97.2764 11.8981 97.5052C11.3718 98.2375 11.5091 99.5189 12.1727 100.16C13.2482 101.166 13.9576 100.938 18.9004 98.0773C21.3488 96.6585 23.477 95.4915 23.5914 95.4915C23.7287 95.4915 25.8339 96.6585 28.2824 98.0773C33.2251 100.938 33.9345 101.166 35.01 100.16C35.788 99.4274 35.8338 98.0544 35.1016 97.3221C34.8041 97.0475 32.5844 95.6974 30.1817 94.3016L25.7653 91.8073V82.6999V73.5924H32.4014H39.0146L39.0832 84.5076C39.1519 95.3771 39.1519 95.4457 39.6782 96.6128C40.8452 99.1757 43.225 100.686 46.1312 100.686C48.2593 100.709 49.9984 99.9537 51.3714 98.3976C53.0648 96.4755 52.9961 97.1848 52.9961 78.9928V62.723L52.4469 61.5788C51.7375 60.0457 49.8611 58.3752 48.3508 57.9175C47.4813 57.6658 45.9939 57.5743 42.3097 57.5743H37.4356V53.0663V48.5584L40.0214 51.0984C41.4402 52.4942 42.8589 53.7071 43.1564 53.7986C43.4768 53.8672 47.6872 53.913 52.5384 53.8672C62.4926 53.7986 62.2637 53.8215 64.1401 51.9222C66.8861 49.0847 66.1767 44.3708 62.6527 42.2884L61.5772 41.6706L54.9183 41.5561L48.2593 41.4417L43.042 35.8354C40.1816 32.7462 37.5043 30.0002 37.1153 29.7027C35.7194 28.673 34.5524 28.5128 28.7401 28.5128C22.6761 28.5128 21.6692 28.673 20.0216 29.9544C19.4953 30.3435 18.7402 31.2588 18.3512 31.9453L17.6418 33.2038L17.5731 49.8856C17.5045 67.0708 17.5274 67.1852 18.3512 69.176C18.4427 69.4048 17.985 69.4735 16.4061 69.4735H14.3237V68.0318C14.3237 64.279 13.5457 56.6818 12.4931 50.1144C11.0972 41.4188 8.4428 29.2451 7.73343 28.284C7.20712 27.5975 6.13161 27.3458 5.23917 27.7119ZM34.3693 33.0665C34.7354 33.2954 37.55 36.1786 40.6164 39.4509C43.6598 42.7232 46.3143 45.4692 46.5202 45.5378C46.7033 45.6064 49.8611 45.6751 53.5453 45.6751C59.9297 45.6751 60.2958 45.698 60.845 46.1328C61.9891 47.0481 61.7374 49.0618 60.4102 49.5652C60.0898 49.7025 56.5201 49.794 52.241 49.794H44.6209L43.2708 48.3982C42.5157 47.643 40.5935 45.7895 38.9917 44.2792C36.4288 41.8765 35.994 41.5561 35.2846 41.5561C34.7812 41.5561 34.2549 41.7621 33.843 42.1053L33.2023 42.6545V51.6247V60.5948L33.843 61.144L34.4837 61.6932H40.5477C47.1152 61.6932 47.4355 61.739 48.3966 62.9747C48.8772 63.5696 48.8772 63.7069 48.8772 79.0844V94.5762L48.3508 95.3542C48.0076 95.8576 47.4813 96.2466 46.8634 96.4755C45.9481 96.7958 45.8337 96.773 45.0557 96.3611C44.598 96.1093 44.0031 95.6059 43.7514 95.2627C43.2937 94.6219 43.2708 94.3245 43.1564 82.6312C43.042 71.5101 43.0191 70.5947 42.6301 70.2286C42.264 69.8625 41.4859 69.8167 33.4769 69.7023C25.9026 69.6108 24.644 69.5421 24.049 69.1989C23.1337 68.6954 22.1955 67.6886 21.898 66.8877C21.715 66.4529 21.6463 61.0296 21.6463 50.3432C21.6463 35.7667 21.6692 34.3938 22.0353 33.8446C22.7447 32.7691 23.4083 32.6546 28.7401 32.6318C33.1565 32.6318 33.7286 32.6775 34.3693 33.0665Z" fill="#0C1638"/>
</g>
</svg>
