<svg width="106" height="106" viewBox="0 0 106 106" fill="none" xmlns="http://www.w3.org/2000/svg">
<g opacity="0.2">
<path fill-rule="evenodd" clip-rule="evenodd" d="M20.4827 82.4985L83.0884 19.8928L86.4825 23.2869L23.8768 85.8926L20.4827 82.4985Z" fill="#0C1638"/>
<path fill-rule="evenodd" clip-rule="evenodd" d="M85.5794 20.7931C86.0977 21.3114 86.938 21.3114 87.4563 20.7931C87.9746 20.2748 87.9746 19.4344 87.4563 18.9161C86.938 18.3978 86.0977 18.3978 85.5794 18.9161C85.0611 19.4344 85.0611 20.2748 85.5794 20.7931ZM82.1852 24.1872C84.5781 26.58 88.4576 26.58 90.8504 24.1872C93.2432 21.7944 93.2432 17.9148 90.8504 15.522C88.4576 13.1292 84.5781 13.1292 82.1852 15.522C79.7924 17.9148 79.7924 21.7944 82.1852 24.1872Z" fill="#0C1638"/>
<path fill-rule="evenodd" clip-rule="evenodd" d="M19.2903 87.0821C19.8086 87.6004 20.6489 87.6004 21.1672 87.0821C21.6855 86.5638 21.6855 85.7235 21.1672 85.2052C20.6489 84.6869 19.8086 84.6869 19.2903 85.2052C18.772 85.7235 18.772 86.5638 19.2903 87.0821ZM15.8962 90.4762C18.289 92.8691 22.1685 92.8691 24.5613 90.4762C26.9541 88.0834 26.9541 84.2039 24.5613 81.8111C22.1685 79.4183 18.289 79.4183 15.8962 81.8111C13.5034 84.2039 13.5034 88.0834 15.8962 90.4762Z" fill="#0C1638"/>
<path fill-rule="evenodd" clip-rule="evenodd" d="M82.8718 85.8926L20.2661 23.2869L23.6602 19.8928L86.2659 82.4985L82.8718 85.8926Z" fill="#0C1638"/>
<path fill-rule="evenodd" clip-rule="evenodd" d="M21.1683 20.7939C21.6866 20.2756 21.6866 19.4353 21.1683 18.917C20.65 18.3987 19.8097 18.3987 19.2914 18.917C18.7731 19.4353 18.7731 20.2756 19.2914 20.7939C19.8097 21.3122 20.65 21.3122 21.1683 20.7939ZM24.5624 24.188C26.9552 21.7952 26.9552 17.9157 24.5624 15.5229C22.1696 13.1301 18.2901 13.1301 15.8973 15.5229C13.5045 17.9157 13.5045 21.7952 15.8973 24.188C18.2901 26.5809 22.1696 26.5809 24.5624 24.188Z" fill="#0C1638"/>
<path fill-rule="evenodd" clip-rule="evenodd" d="M87.4554 87.083C87.9737 86.5647 87.9737 85.7244 87.4554 85.2061C86.9371 84.6878 86.0968 84.6878 85.5785 85.2061C85.0602 85.7244 85.0602 86.5647 85.5785 87.083C86.0968 87.6013 86.9371 87.6013 87.4554 87.083ZM90.8495 90.4771C93.2423 88.0843 93.2423 84.2048 90.8495 81.812C88.4567 79.4191 84.5772 79.4191 82.1844 81.812C79.7916 84.2048 79.7916 88.0843 82.1844 90.4771C84.5772 92.8699 88.4567 92.8699 90.8495 90.4771Z" fill="#0C1638"/>
<path fill-rule="evenodd" clip-rule="evenodd" d="M8.95805 50.6L97.7893 50.6L97.7893 55.4L8.95805 55.4L8.95805 50.6Z" fill="#0C1638"/>
<path fill-rule="evenodd" clip-rule="evenodd" d="M98.8565 52.9992C98.8565 53.6464 99.3812 54.171 100.028 54.171C100.676 54.171 101.2 53.6464 101.2 52.9992C101.2 52.352 100.676 51.8273 100.028 51.8273C99.3812 51.8273 98.8565 52.352 98.8565 52.9992ZM94.0565 52.9992C94.0565 56.2974 96.7302 58.971 100.028 58.971C103.327 58.971 106 56.2974 106 52.9992C106 49.701 103.327 47.0273 100.028 47.0273C96.7302 47.0273 94.0565 49.701 94.0565 52.9992Z" fill="#0C1638"/>
<path fill-rule="evenodd" clip-rule="evenodd" d="M4.79952 52.9992C4.79952 53.3764 5.21298 54.171 6.34461 54.171C7.47624 54.171 7.8897 53.3764 7.8897 52.9992C7.8897 52.622 7.47624 51.8273 6.34461 51.8273C5.21298 51.8273 4.79952 52.622 4.79952 52.9992ZM-0.00048282 52.9992C-0.000482964 56.2974 2.84031 58.971 6.34461 58.971C9.8489 58.971 12.6897 56.2974 12.6897 52.9992C12.6897 49.701 9.8489 47.0273 6.34461 47.0273C2.84031 47.0273 -0.000482676 49.701 -0.00048282 52.9992Z" fill="#0C1638"/>
<path fill-rule="evenodd" clip-rule="evenodd" d="M50.6003 97.0422V8.21094H55.4003V97.0422H50.6003Z" fill="#0C1638"/>
<path d="M74.6473 51.8802C74.6473 63.6299 65.1223 73.1549 53.3726 73.1549C41.6229 73.1549 32.0979 63.6299 32.0979 51.8802C32.0979 40.1305 41.6229 30.6055 53.3726 30.6055C65.1223 30.6055 74.6473 40.1305 74.6473 51.8802Z" fill="white"/>
<path d="M81.3672 52.253C81.3672 67.9193 68.8343 80.6193 53.3741 80.6193C37.914 80.6193 25.3811 67.9193 25.3811 52.253C25.3811 36.5867 37.914 23.8867 53.3741 23.8867C68.8343 23.8867 81.3672 36.5867 81.3672 52.253Z" fill="white"/>
<path fill-rule="evenodd" clip-rule="evenodd" d="M53.3727 7.1437C54.5043 7.1437 54.9178 6.34905 54.9178 5.97185C54.9178 5.59465 54.5043 4.8 53.3727 4.8C52.241 4.8 51.8276 5.59465 51.8276 5.97185C51.8276 6.34905 52.241 7.1437 53.3727 7.1437ZM53.3727 11.9437C56.877 11.9437 59.7178 9.27001 59.7178 5.97185C59.7178 2.67369 56.877 0 53.3727 0C49.8684 0 47.0276 2.67369 47.0276 5.97185C47.0276 9.27001 49.8684 11.9437 53.3727 11.9437Z" fill="#0C1638"/>
<path fill-rule="evenodd" clip-rule="evenodd" d="M53.3727 101.198C54.5043 101.198 54.9178 100.404 54.9178 100.027C54.9178 99.6493 54.5043 98.8547 53.3727 98.8547C52.241 98.8547 51.8276 99.6493 51.8276 100.027C51.8276 100.404 52.241 101.198 53.3727 101.198ZM53.3727 105.998C56.877 105.998 59.7178 103.325 59.7178 100.027C59.7178 96.7284 56.877 94.0547 53.3727 94.0547C49.8684 94.0547 47.0276 96.7284 47.0276 100.027C47.0276 103.325 49.8684 105.998 53.3727 105.998Z" fill="#0C1638"/>
<path fill-rule="evenodd" clip-rule="evenodd" d="M53.3726 72.0873C64.5327 72.0873 73.5797 63.0402 73.5797 51.8802C73.5797 40.7201 64.5327 31.673 53.3726 31.673C42.2125 31.673 33.1655 40.7201 33.1655 51.8802C33.1655 63.0402 42.2125 72.0873 53.3726 72.0873ZM53.3726 76.8873C67.1836 76.8873 78.3797 65.6912 78.3797 51.8802C78.3797 38.0691 67.1836 26.873 53.3726 26.873C39.5615 26.873 28.3655 38.0691 28.3655 51.8802C28.3655 65.6912 39.5615 76.8873 53.3726 76.8873Z" fill="#0C1638"/>
<path fill-rule="evenodd" clip-rule="evenodd" d="M65.1917 44.6286C66.1045 45.5897 66.0653 47.1088 65.1041 48.0215L50.8749 61.5348L43.1367 54.186C42.1756 53.2733 42.1364 51.7542 43.0491 50.793C43.9619 49.8319 45.481 49.7927 46.4421 50.7055L50.8749 54.9151L61.7987 44.541C62.7599 43.6282 64.279 43.6674 65.1917 44.6286Z" fill="#0C1638"/>
</g>
</svg>
