<svg width="24" height="24" viewBox="0 0 24 24" fill="none" xmlns="http://www.w3.org/2000/svg">
<path d="M19.3831 14.076C18.9117 13.5873 18.343 13.326 17.7403 13.326C17.1425 13.326 16.569 13.5825 16.0781 14.0712L14.5422 15.5954C14.4158 15.5276 14.2895 15.4647 14.1679 15.4018C13.993 15.3147 13.8277 15.2325 13.6868 15.1454C12.2481 14.2357 10.9407 13.0502 9.6867 11.5163C9.07915 10.7518 8.67088 10.1083 8.3744 9.45503C8.77295 9.09213 9.14234 8.71471 9.502 8.35181C9.63809 8.21632 9.77418 8.076 9.91027 7.94052C10.931 6.92439 10.931 5.60826 9.91027 4.59213L8.5834 3.27116C8.43272 3.12116 8.27719 2.96632 8.13138 2.81149C7.83976 2.51149 7.53356 2.20181 7.21763 1.91149C6.74618 1.44697 6.18238 1.2002 5.58941 1.2002C4.99645 1.2002 4.42293 1.44697 3.93689 1.91149C3.93203 1.91632 3.93203 1.91632 3.92717 1.92116L2.27465 3.58084C1.65252 4.2002 1.29772 4.95503 1.21995 5.83084C1.1033 7.24374 1.52129 8.55987 1.84208 9.42116C2.62946 11.5357 3.80566 13.4954 5.56025 15.5954C7.68909 18.126 10.2505 20.1244 13.1764 21.5325C14.2943 22.0599 15.7864 22.6841 17.4536 22.7905C17.5556 22.7954 17.6625 22.8002 17.7598 22.8002C18.8825 22.8002 19.8254 22.3986 20.5642 21.6002C20.569 21.5905 20.5788 21.5857 20.5836 21.576C20.8364 21.2712 21.128 20.9954 21.4342 20.7002C21.6432 20.5018 21.857 20.2937 22.066 20.076C22.5472 19.5776 22.7999 18.997 22.7999 18.4018C22.7999 17.8018 22.5423 17.226 22.0515 16.7421L19.3831 14.076ZM21.1231 19.1712C21.1183 19.1712 21.1183 19.176 21.1231 19.1712C20.9336 19.3744 20.7392 19.5583 20.5302 19.7615C20.2142 20.0615 19.8935 20.376 19.5921 20.7292C19.1012 21.2518 18.5228 21.4986 17.7646 21.4986C17.6917 21.4986 17.6139 21.4986 17.541 21.4937C16.0975 21.4018 14.7561 20.8405 13.75 20.3615C10.999 19.0357 8.5834 17.1534 6.57607 14.7679C4.91868 12.7792 3.81052 10.9405 3.07661 8.96632C2.62459 7.76149 2.45934 6.82278 2.53225 5.93729C2.58085 5.37116 2.79957 4.90181 3.20298 4.5002L4.86036 2.8502C5.09852 2.62761 5.35126 2.50665 5.59914 2.50665C5.90534 2.50665 6.15322 2.69052 6.30875 2.84536C6.31361 2.8502 6.31847 2.85503 6.32333 2.85987C6.61981 3.13568 6.90171 3.42116 7.19819 3.726C7.34886 3.88084 7.5044 4.03568 7.65993 4.19536L8.98681 5.51632C9.502 6.02923 9.502 6.50342 8.98681 7.01632C8.84586 7.15665 8.70976 7.29697 8.56881 7.43245C8.16054 7.84858 7.77172 8.23568 7.34886 8.6131C7.33914 8.62278 7.32942 8.62761 7.32456 8.63729C6.90657 9.05342 6.98434 9.45987 7.07182 9.73568C7.07668 9.75019 7.08154 9.76471 7.08641 9.77923C7.43149 10.6115 7.91753 11.3954 8.6563 12.3292L8.66116 12.3341C10.0026 13.9792 11.417 15.2615 12.9772 16.2437C13.1764 16.3695 13.3806 16.4712 13.575 16.5679C13.75 16.655 13.9152 16.7373 14.0562 16.8244C14.0756 16.8341 14.095 16.8486 14.1145 16.8583C14.2797 16.9405 14.4353 16.9792 14.5957 16.9792C14.9991 16.9792 15.2518 16.7276 15.3344 16.6454L16.9967 14.9905C17.1619 14.826 17.4244 14.6276 17.7306 14.6276C18.0319 14.6276 18.2798 14.8163 18.4305 14.9808C18.4353 14.9857 18.4353 14.9857 18.4402 14.9905L21.1183 17.6566C21.6189 18.1502 21.6189 18.6583 21.1231 19.1712Z" fill="#00954D"/>
</svg>
