<svg width="200" height="50" viewBox="0 0 200 50" fill="none" xmlns="http://www.w3.org/2000/svg">
<path d="M7.45272 21.6466C8.01307 21.6466 8.48004 21.5868 8.85361 21.4673C9.23465 21.3402 9.54098 21.1684 9.7726 20.9517C10.0042 20.7351 10.1686 20.481 10.2657 20.1896C10.3628 19.8983 10.4114 19.5845 10.4114 19.2482C10.4114 18.8821 10.3628 18.5497 10.2657 18.2508C10.1686 17.952 10.0042 17.7017 9.7726 17.4999C9.54098 17.2907 9.23839 17.1301 8.86482 17.018C8.49125 16.906 8.02428 16.8499 7.46392 16.8499H4.81904V21.6466H7.45272ZM7.46392 14.4964C8.5174 14.4964 9.4177 14.6122 10.1648 14.8438C10.9195 15.0755 11.5321 15.393 12.0028 15.7964C12.481 16.1924 12.8321 16.6631 13.0563 17.2085C13.2804 17.7465 13.3925 18.3255 13.3925 18.9456C13.3925 19.7077 13.258 20.3988 12.989 21.019C12.7275 21.6391 12.3428 22.1733 11.8347 22.6216C11.3267 23.0624 10.7028 23.4024 9.96312 23.6414C9.23092 23.8805 8.39412 24.0001 7.45272 24.0001H1.80432V7.79455H12.7985V10.1256H4.81904V14.4964H7.46392Z" fill="#0C1638"/>
<path d="M21.5161 19.0913C20.7167 19.1287 20.0442 19.1997 19.4988 19.3043C18.9534 19.4014 18.5163 19.5284 18.1876 19.6853C17.8588 19.8422 17.6235 20.0253 17.4815 20.2345C17.3396 20.4437 17.2686 20.6715 17.2686 20.9181C17.2686 21.4037 17.4106 21.7512 17.6945 21.9604C17.9858 22.1696 18.3632 22.2742 18.8264 22.2742C19.3942 22.2742 19.8836 22.1733 20.2945 21.9716C20.7129 21.7624 21.1201 21.4486 21.5161 21.0302V19.0913ZM15.1729 14.1042C16.4953 12.8938 18.0867 12.2886 19.9471 12.2886C20.6195 12.2886 21.221 12.4007 21.7514 12.6248C22.2819 12.8415 22.7302 13.1478 23.0963 13.5438C23.4624 13.9323 23.7388 14.3993 23.9256 14.9447C24.1199 15.4901 24.217 16.0878 24.217 16.7378V24.0001H22.9618C22.7003 24.0001 22.4986 23.9627 22.3566 23.888C22.2147 23.8058 22.1026 23.6452 22.0204 23.4061L21.7739 22.5768C21.4825 22.8383 21.1986 23.0699 20.9221 23.2716C20.6457 23.4659 20.358 23.6302 20.0592 23.7647C19.7603 23.8992 19.439 24.0001 19.0954 24.0673C18.7591 24.142 18.3856 24.1794 17.9746 24.1794C17.489 24.1794 17.0407 24.1159 16.6298 23.9889C16.2189 23.8544 15.864 23.6564 15.5651 23.3949C15.2663 23.1334 15.0346 22.8084 14.8703 22.4199C14.7059 22.0313 14.6237 21.5793 14.6237 21.0638C14.6237 20.7724 14.6723 20.4848 14.7694 20.2008C14.8665 19.9095 15.0234 19.633 15.2401 19.3715C15.4642 19.11 15.7519 18.8635 16.1031 18.6318C16.4542 18.4002 16.8838 18.1985 17.3919 18.0267C17.9074 17.8548 18.5051 17.7166 19.185 17.612C19.8649 17.4999 20.6419 17.4327 21.5161 17.4103V16.7378C21.5161 15.9683 21.3517 15.4005 21.023 15.0344C20.6942 14.6608 20.2198 14.474 19.5997 14.474C19.1514 14.474 18.7778 14.5263 18.479 14.6309C18.1876 14.7355 17.9298 14.855 17.7057 14.9895C17.4815 15.1165 17.2761 15.2324 17.0893 15.337C16.91 15.4416 16.7082 15.4939 16.4841 15.4939C16.2898 15.4939 16.1255 15.4453 15.991 15.3482C15.8565 15.2436 15.7482 15.124 15.666 14.9895L15.1729 14.1042Z" fill="#0C1638"/>
<path d="M36.8433 12.5015V24.0001H34.0751V18.912H29.5922V24.0001H26.8241V12.5015H29.5922V16.8611H34.0751V12.5015H36.8433Z" fill="#0C1638"/>
<path d="M46.4553 13.23C46.5898 13.0133 46.7728 12.8378 47.0045 12.7033C47.2361 12.5688 47.4826 12.5015 47.7441 12.5015H49.9183L47.2398 16.7715C47.053 17.0703 46.8625 17.3131 46.6682 17.4999C46.474 17.6792 46.2386 17.8212 45.9622 17.9258C46.3358 18.0379 46.6421 18.206 46.8812 18.4301C47.1203 18.6468 47.3369 18.9232 47.5312 19.2594L50.2209 24.0001H48.3045C47.8188 24.0001 47.4415 23.9179 47.1726 23.7535C46.9036 23.5891 46.6757 23.3538 46.4889 23.0475L44.7966 19.8646C44.6472 19.5882 44.453 19.3827 44.2139 19.2482C43.9823 19.1138 43.7096 19.0465 43.3958 19.0465H42.3535V24.0001H39.5853V12.5015H42.3535V17.2422H43.2501C43.5639 17.2422 43.8142 17.1861 44.0009 17.0741C44.1952 16.9545 44.3596 16.7752 44.4941 16.5361L46.4553 13.23Z" fill="#0C1638"/>
<path d="M58.7476 16.9284C58.7476 16.5697 58.6953 16.2335 58.5907 15.9197C58.4936 15.5985 58.3441 15.3183 58.1424 15.0792C57.9407 14.8401 57.6829 14.6533 57.3691 14.5188C57.0628 14.3769 56.7042 14.3059 56.2932 14.3059C55.4938 14.3059 54.8625 14.5338 54.3992 14.9895C53.9435 15.4453 53.6521 16.0916 53.5251 16.9284H58.7476ZM53.469 18.5982C53.5139 19.1885 53.6185 19.7003 53.7828 20.1336C53.9472 20.5595 54.1639 20.9144 54.4329 21.1983C54.7018 21.4747 55.0194 21.6839 55.3855 21.8259C55.759 21.9604 56.17 22.0276 56.6182 22.0276C57.0665 22.0276 57.4513 21.9753 57.7726 21.8707C58.1013 21.7661 58.3852 21.6503 58.6243 21.5233C58.8709 21.3963 59.0838 21.2805 59.2631 21.1759C59.4499 21.0713 59.6292 21.019 59.8011 21.019C60.0327 21.019 60.2045 21.1049 60.3166 21.2767L61.1123 22.2854C60.806 22.644 60.4623 22.9466 60.0813 23.1932C59.7002 23.4322 59.3005 23.6265 58.8821 23.7759C58.4712 23.9179 58.049 24.0187 57.6157 24.0785C57.1898 24.1383 56.7751 24.1682 56.3717 24.1682C55.5722 24.1682 54.8288 24.0374 54.1415 23.7759C53.4541 23.507 52.8564 23.1147 52.3483 22.5992C51.8403 22.0762 51.4405 21.4336 51.1492 20.6715C50.8578 19.902 50.7121 19.0129 50.7121 18.0042C50.7121 17.2197 50.8391 16.4838 51.0931 15.7964C51.3472 15.1016 51.7095 14.5002 52.1802 13.9921C52.6584 13.4766 53.2374 13.0694 53.9173 12.7705C54.6047 12.4717 55.378 12.3222 56.2372 12.3222C56.9619 12.3222 57.6306 12.438 58.2433 12.6697C58.8559 12.9013 59.3827 13.2412 59.8235 13.6895C60.2643 14.1303 60.608 14.6757 60.8545 15.3257C61.1086 15.9683 61.2356 16.7042 61.2356 17.5335C61.2356 17.9519 61.1908 18.2359 61.1011 18.3853C61.0114 18.5272 60.8396 18.5982 60.5856 18.5982H53.469Z" fill="#0C1638"/>
<path d="M73.0877 14.5525H68.9858V24.0001H66.2177V14.5525H62.1271V12.5015H73.0877V14.5525Z" fill="#0C1638"/>
<path d="M84.7363 12.5015V24.0001H81.9681V18.912H77.4852V24.0001H74.7171V12.5015H77.4852V16.8611H81.9681V12.5015H84.7363Z" fill="#0C1638"/>
<path d="M92.1741 22.0164C92.8017 22.0164 93.2687 21.8595 93.575 21.5457C93.8888 21.2319 94.0457 20.8284 94.0457 20.3353C94.0457 20.1261 94.0084 19.9244 93.9336 19.7301C93.8664 19.5359 93.7581 19.364 93.6086 19.2146C93.4592 19.0652 93.2649 18.9494 93.0259 18.8672C92.7868 18.7775 92.4991 18.7327 92.1629 18.7327H90.112V22.0164H92.1741ZM92.1517 16.7603C92.9511 16.7603 93.6273 16.8574 94.1802 17.0516C94.7331 17.2459 95.1814 17.5074 95.525 17.8361C95.8687 18.1649 96.1153 18.5459 96.2647 18.9793C96.4216 19.4051 96.5001 19.8534 96.5001 20.3241C96.5001 20.8621 96.4029 21.3589 96.2087 21.8147C96.0219 22.263 95.7417 22.6515 95.3681 22.9802C95.0021 23.3015 94.55 23.5518 94.0121 23.7311C93.4816 23.9104 92.8727 24.0001 92.1853 24.0001H87.4783V12.5015H90.112V16.7603H92.1517ZM101.364 12.5015V24.0001H98.5958V12.5015H101.364Z" fill="#0C1638"/>
<path d="M114.425 12.5015V24.0001H111.657V17.287C111.657 17.1152 111.664 16.9284 111.679 16.7266C111.702 16.5174 111.728 16.3082 111.758 16.099C111.608 16.4427 111.444 16.7453 111.265 17.0068C111.25 17.0218 111.175 17.1264 111.04 17.3206C110.906 17.5074 110.73 17.7502 110.514 18.0491C110.305 18.3479 110.065 18.6879 109.796 19.0689C109.527 19.4425 109.255 19.8235 108.978 20.2121C108.328 21.131 107.592 22.1696 106.771 23.3276C106.666 23.4845 106.528 23.6377 106.356 23.7871C106.191 23.9366 106.001 24.0113 105.784 24.0113H104.092V12.5128H106.86V19.2258C106.86 19.3977 106.849 19.5882 106.827 19.7974C106.812 19.9991 106.789 20.2046 106.759 20.4138C106.924 20.0477 107.088 19.7451 107.252 19.506C107.26 19.4911 107.331 19.3902 107.465 19.2034C107.6 19.0166 107.772 18.7738 107.981 18.4749C108.198 18.1761 108.44 17.8399 108.709 17.4663C108.978 17.0853 109.251 16.6968 109.527 16.3008C110.178 15.3818 110.917 14.3433 111.747 13.1852C111.851 13.0208 111.989 12.8676 112.161 12.7257C112.333 12.5763 112.527 12.5015 112.744 12.5015H114.425ZM109.415 9.58769C109.692 9.58769 109.923 9.5578 110.11 9.49803C110.297 9.43826 110.446 9.34113 110.559 9.20665C110.671 9.06469 110.749 8.8779 110.794 8.64629C110.839 8.41468 110.861 8.13076 110.861 7.79455H112.497C112.692 7.79455 112.834 7.87673 112.923 8.04111C113.02 8.198 113.069 8.37358 113.069 8.56784C113.069 8.94888 112.983 9.2963 112.811 9.6101C112.639 9.91643 112.393 10.1779 112.072 10.3946C111.75 10.6038 111.365 10.7682 110.917 10.8877C110.469 10.9998 109.968 11.0558 109.415 11.0558C108.863 11.0558 108.362 10.9998 107.914 10.8877C107.465 10.7682 107.081 10.6038 106.759 10.3946C106.438 10.1779 106.191 9.91643 106.02 9.6101C105.848 9.2963 105.762 8.94888 105.762 8.56784C105.762 8.37358 105.807 8.198 105.896 8.04111C105.994 7.87673 106.139 7.79455 106.333 7.79455H107.97C107.97 8.13076 107.992 8.41468 108.037 8.64629C108.082 8.8779 108.16 9.06469 108.272 9.20665C108.384 9.34113 108.53 9.43826 108.709 9.49803C108.896 9.5578 109.132 9.58769 109.415 9.58769Z" fill="#0C1638"/>
<path d="M128.725 20.1784C128.89 20.1784 129.036 20.2419 129.163 20.369L130.351 21.6578C129.693 22.4722 128.882 23.096 127.919 23.5294C126.962 23.9627 125.812 24.1794 124.467 24.1794C123.264 24.1794 122.181 23.9739 121.217 23.563C120.26 23.1521 119.442 22.5805 118.762 21.8483C118.082 21.1161 117.559 20.2419 117.193 19.2258C116.835 18.2097 116.655 17.1002 116.655 15.8973C116.655 14.6795 116.85 13.5662 117.238 12.5576C117.627 11.5415 118.172 10.6673 118.874 9.93511C119.584 9.20291 120.428 8.63508 121.407 8.23163C122.386 7.8207 123.469 7.61523 124.657 7.61523C125.838 7.61523 126.884 7.80949 127.795 8.198C128.714 8.58652 129.495 9.09458 130.138 9.72218L129.129 11.1231C129.069 11.2127 128.991 11.2912 128.894 11.3584C128.804 11.4257 128.677 11.4593 128.513 11.4593C128.4 11.4593 128.285 11.4294 128.165 11.3696C128.046 11.3024 127.915 11.2239 127.773 11.1343C127.631 11.0371 127.467 10.9325 127.28 10.8205C127.093 10.7084 126.876 10.6075 126.63 10.5179C126.383 10.4208 126.096 10.3423 125.767 10.2825C125.446 10.2153 125.072 10.1817 124.646 10.1817C123.921 10.1817 123.256 10.3124 122.651 10.5739C122.054 10.8279 121.538 11.2015 121.105 11.6946C120.671 12.1803 120.335 12.778 120.096 13.4878C119.857 14.1901 119.737 14.9933 119.737 15.8973C119.737 16.8088 119.864 17.6195 120.118 18.3293C120.38 19.039 120.731 19.6368 121.172 20.1224C121.613 20.608 122.132 20.9816 122.73 21.2431C123.327 21.4971 123.97 21.6242 124.657 21.6242C125.068 21.6242 125.438 21.6017 125.767 21.5569C126.103 21.5121 126.409 21.4411 126.686 21.344C126.97 21.2468 127.235 21.1236 127.481 20.9741C127.736 20.8172 127.986 20.6267 128.232 20.4026C128.307 20.3353 128.386 20.283 128.468 20.2457C128.55 20.2008 128.636 20.1784 128.725 20.1784Z" fill="#0C1638"/>
<path d="M141.294 14.5525H137.192V24.0001H134.424V14.5525H130.333V12.5015H141.294V14.5525Z" fill="#0C1638"/>
<path d="M153.368 12.5015L147.103 27.1605C147.021 27.3547 146.913 27.5004 146.778 27.5976C146.651 27.7022 146.453 27.7545 146.184 27.7545H144.122L146.274 23.1371L141.623 12.5015H144.055C144.272 12.5015 144.44 12.5538 144.559 12.6584C144.686 12.763 144.78 12.8826 144.839 13.0171L147.283 18.9793C147.365 19.181 147.432 19.3827 147.484 19.5845C147.544 19.7862 147.6 19.9916 147.652 20.2008C147.72 19.9916 147.787 19.7862 147.854 19.5845C147.921 19.3753 147.996 19.1698 148.078 18.9681L150.387 13.0171C150.447 12.8676 150.544 12.7444 150.678 12.6472C150.82 12.5501 150.977 12.5015 151.149 12.5015H153.368Z" fill="#0C1638"/>
<path d="M164.296 24.0001H161.528V14.6197H158.704C158.614 16.0318 158.476 17.2496 158.289 18.2732C158.102 19.2893 157.878 20.1523 157.616 20.8621C157.362 21.5719 157.075 22.1434 156.753 22.5768C156.44 23.0026 156.103 23.3351 155.745 23.5742C155.386 23.8133 155.016 23.9702 154.635 24.0449C154.254 24.1271 153.87 24.1682 153.481 24.1682C153.07 24.1682 152.767 24.1308 152.573 24.0561C152.386 23.9889 152.293 23.8917 152.293 23.7647V22.0388H152.954C153.201 22.0388 153.447 22.0015 153.694 21.9267C153.94 21.852 154.18 21.6989 154.411 21.4673C154.643 21.2356 154.863 20.9069 155.072 20.481C155.282 20.0477 155.472 19.4799 155.644 18.7775C155.823 18.0678 155.98 17.2011 156.115 16.1775C156.249 15.1539 156.354 13.9286 156.428 12.5015H164.296V24.0001Z" fill="#0C1638"/>
<path d="M166.964 22.4758C166.964 22.2442 167.005 22.0238 167.087 21.8146C167.177 21.6054 167.296 21.426 167.446 21.2766C167.595 21.1272 167.775 21.0076 167.984 20.918C168.193 20.8283 168.417 20.7835 168.656 20.7835C168.895 20.7835 169.116 20.8283 169.317 20.918C169.527 21.0076 169.706 21.1272 169.855 21.2766C170.012 21.426 170.135 21.6054 170.225 21.8146C170.315 22.0238 170.36 22.2442 170.36 22.4758C170.36 22.7149 170.315 22.939 170.225 23.1482C170.135 23.3499 170.012 23.5255 169.855 23.6749C169.706 23.8244 169.527 23.9402 169.317 24.0224C169.116 24.112 168.895 24.1569 168.656 24.1569C168.417 24.1569 168.193 24.112 167.984 24.0224C167.775 23.9402 167.595 23.8244 167.446 23.6749C167.296 23.5255 167.177 23.3499 167.087 23.1482C167.005 22.939 166.964 22.7149 166.964 22.4758Z" fill="#00954D"/>
<path d="M175.454 21.0189C175.768 21.3999 176.108 21.6689 176.474 21.8258C176.848 21.9827 177.251 22.0611 177.685 22.0611C178.103 22.0611 178.48 21.9827 178.817 21.8258C179.153 21.6689 179.437 21.4298 179.668 21.1085C179.907 20.7872 180.091 20.3838 180.218 19.8981C180.345 19.405 180.408 18.826 180.408 18.161C180.408 17.4886 180.352 16.9208 180.24 16.4576C180.135 15.9869 179.982 15.6058 179.78 15.3144C179.579 15.023 179.332 14.8101 179.041 14.6756C178.757 14.5411 178.432 14.4739 178.066 14.4739C177.49 14.4739 177.001 14.5972 176.598 14.8437C176.194 15.0828 175.813 15.4228 175.454 15.8636V21.0189ZM175.309 14.0704C175.78 13.54 176.314 13.1104 176.911 12.7816C177.509 12.4529 178.211 12.2885 179.018 12.2885C179.646 12.2885 180.218 12.4192 180.733 12.6807C181.256 12.9422 181.704 13.3233 182.078 13.8239C182.459 14.317 182.75 14.9296 182.952 15.6618C183.161 16.3866 183.266 17.2196 183.266 18.161C183.266 19.0202 183.15 19.816 182.918 20.5482C182.687 21.2804 182.354 21.9154 181.921 22.4534C181.495 22.9913 180.976 23.4134 180.363 23.7198C179.758 24.0186 179.078 24.1681 178.324 24.1681C177.681 24.1681 177.132 24.0709 176.676 23.8767C176.22 23.6749 175.813 23.3985 175.454 23.0473V27.7543H172.686V12.5014H174.379C174.737 12.5014 174.973 12.6695 175.085 13.0058L175.309 14.0704Z" fill="#00954D"/>
<path d="M193.439 22.1059C194.553 22.0238 195.412 21.6502 196.017 20.9852C196.63 20.3203 196.936 19.4088 196.936 18.2507C196.936 17.0926 196.63 16.1811 196.017 15.5162C195.412 14.8437 194.553 14.4664 193.439 14.3842V22.1059ZM191.019 14.3842C190.466 14.4291 189.973 14.5486 189.539 14.7429C189.113 14.9296 188.747 15.1874 188.441 15.5162C188.142 15.8449 187.914 16.2409 187.757 16.7041C187.6 17.1599 187.522 17.6754 187.522 18.2507C187.522 18.826 187.6 19.3453 187.757 19.8085C187.914 20.2642 188.142 20.6565 188.441 20.9852C188.747 21.3065 189.113 21.5643 189.539 21.7585C189.973 21.9453 190.466 22.0611 191.019 22.1059V14.3842ZM193.529 12.3333C194.448 12.3856 195.285 12.5612 196.039 12.8601C196.801 13.1514 197.451 13.5512 197.989 14.0592C198.535 14.5673 198.957 15.1725 199.256 15.8748C199.555 16.5771 199.704 17.3616 199.704 18.2283C199.704 19.1024 199.555 19.8944 199.256 20.6042C198.957 21.3065 198.535 21.9117 197.989 22.4197C197.451 22.9278 196.801 23.3313 196.039 23.6301C195.285 23.929 194.448 24.1046 193.529 24.1569V27.8552H190.929V24.1569C190.01 24.1046 189.169 23.929 188.407 23.6301C187.653 23.3313 187.003 22.9278 186.457 22.4197C185.919 21.9117 185.501 21.3065 185.202 20.6042C184.903 19.8944 184.754 19.1024 184.754 18.2283C184.754 17.3616 184.903 16.5771 185.202 15.8748C185.501 15.1725 185.919 14.5673 186.457 14.0592C187.003 13.5512 187.653 13.1514 188.407 12.8601C189.169 12.5612 190.01 12.3856 190.929 12.3333V7.79443H193.529V12.3333Z" fill="#00954D"/>
<g opacity="0.5">
<path d="M23.8147 38.6946C24.163 38.6946 24.4693 38.6484 24.7337 38.5561C25.0023 38.4638 25.2268 38.3358 25.4072 38.1721C25.5919 38.0043 25.7304 37.8049 25.8227 37.5741C25.915 37.3433 25.9612 37.0894 25.9612 36.8125C25.9612 36.2375 25.7828 35.7885 25.4261 35.4654C25.0736 35.1422 24.5365 34.9807 23.8147 34.9807H22.3669V38.6946H23.8147ZM23.8147 34.0176C24.3854 34.0176 24.8806 34.0847 25.3002 34.219C25.7241 34.3491 26.0745 34.5358 26.3515 34.7792C26.6284 35.0226 26.8341 35.3164 26.9683 35.6605C27.1068 36.0046 27.1761 36.3886 27.1761 36.8125C27.1761 37.2321 27.1026 37.6161 26.9558 37.9644C26.8089 38.3127 26.5928 38.6128 26.3074 38.8646C26.0262 39.1163 25.6758 39.3136 25.2562 39.4563C24.8407 39.5947 24.3602 39.664 23.8147 39.664H22.3669V43.038H21.152V34.0176H23.8147Z" fill="#0C1638"/>
<path d="M30.8046 36.5607C31.2704 36.5607 31.6901 36.6383 32.0636 36.7936C32.4371 36.9488 32.756 37.1692 33.0204 37.4545C33.2848 37.7399 33.4862 38.0861 33.6247 38.4932C33.7673 38.896 33.8387 39.3471 33.8387 39.8465C33.8387 40.3501 33.7673 40.8033 33.6247 41.2062C33.4862 41.6091 33.2848 41.9532 33.0204 42.2385C32.756 42.5239 32.4371 42.7442 32.0636 42.8995C31.6901 43.0506 31.2704 43.1261 30.8046 43.1261C30.3346 43.1261 29.9108 43.0506 29.5331 42.8995C29.1596 42.7442 28.8406 42.5239 28.5763 42.2385C28.3119 41.9532 28.1084 41.6091 27.9657 41.2062C27.8272 40.8033 27.7579 40.3501 27.7579 39.8465C27.7579 39.3471 27.8272 38.896 27.9657 38.4932C28.1084 38.0861 28.3119 37.7399 28.5763 37.4545C28.8406 37.1692 29.1596 36.9488 29.5331 36.7936C29.9108 36.6383 30.3346 36.5607 30.8046 36.5607ZM30.8046 42.2511C31.4341 42.2511 31.9041 42.0413 32.2146 41.6217C32.5252 41.1978 32.6805 40.6082 32.6805 39.8528C32.6805 39.0933 32.5252 38.5016 32.2146 38.0777C31.9041 37.6539 31.4341 37.4419 30.8046 37.4419C30.4857 37.4419 30.2066 37.4965 29.9674 37.6056C29.7324 37.7147 29.5352 37.8721 29.3757 38.0777C29.2204 38.2833 29.1029 38.5372 29.0232 38.8394C28.9477 39.1373 28.9099 39.4751 28.9099 39.8528C28.9099 40.6082 29.0652 41.1978 29.3757 41.6217C29.6904 42.0413 30.1667 42.2511 30.8046 42.2511Z" fill="#0C1638"/>
<path d="M39.6976 37.7944C39.6641 37.8406 39.6305 37.8763 39.5969 37.9015C39.5634 37.9266 39.5172 37.9392 39.4584 37.9392C39.3955 37.9392 39.3263 37.914 39.2507 37.8637C39.1752 37.8091 39.0808 37.7504 38.9675 37.6874C38.8583 37.6245 38.722 37.5678 38.5583 37.5175C38.3988 37.4629 38.2016 37.4356 37.9666 37.4356C37.6518 37.4356 37.3749 37.4923 37.1357 37.6056C36.8965 37.7147 36.695 37.8742 36.5314 38.084C36.3719 38.2938 36.2502 38.5477 36.1663 38.8457C36.0865 39.1436 36.0467 39.4772 36.0467 39.8465C36.0467 40.2326 36.0907 40.5767 36.1789 40.8789C36.267 41.1768 36.3908 41.4286 36.5503 41.6342C36.7139 41.8357 36.9091 41.991 37.1357 42.1001C37.3665 42.205 37.6246 42.2574 37.9099 42.2574C38.1827 42.2574 38.4072 42.226 38.5835 42.163C38.7597 42.0959 38.9045 42.0224 39.0178 41.9427C39.1353 41.863 39.2318 41.7916 39.3074 41.7287C39.3871 41.6615 39.4647 41.628 39.5403 41.628C39.6326 41.628 39.7039 41.6636 39.7543 41.735L40.069 42.1441C39.9306 42.3162 39.7732 42.4631 39.5969 42.5848C39.4207 42.7065 39.2297 42.8093 39.0241 42.8932C38.8227 42.9729 38.6108 43.0317 38.3883 43.0695C38.1659 43.1072 37.9393 43.1261 37.7085 43.1261C37.3098 43.1261 36.9384 43.0527 36.5943 42.9058C36.2544 42.7589 35.9586 42.547 35.7068 42.27C35.455 41.9889 35.2577 41.6447 35.1151 41.2377C34.9724 40.8306 34.901 40.3669 34.901 39.8465C34.901 39.3723 34.9661 38.9338 35.0962 38.5309C35.2305 38.1281 35.4235 37.7819 35.6753 37.4923C35.9313 37.1985 36.2439 36.9698 36.6132 36.8062C36.9867 36.6425 37.4147 36.5607 37.8973 36.5607C38.3464 36.5607 38.7408 36.6341 39.0808 36.781C39.4249 36.9237 39.7291 37.1272 39.9935 37.3916L39.6976 37.7944Z" fill="#0C1638"/>
<path d="M45.599 37.7944C45.5654 37.8406 45.5318 37.8763 45.4983 37.9015C45.4647 37.9266 45.4185 37.9392 45.3598 37.9392C45.2968 37.9392 45.2276 37.914 45.1521 37.8637C45.0765 37.8091 44.9821 37.7504 44.8688 37.6874C44.7597 37.6245 44.6233 37.5678 44.4596 37.5175C44.3002 37.4629 44.1029 37.4356 43.8679 37.4356C43.5532 37.4356 43.2762 37.4923 43.037 37.6056C42.7978 37.7147 42.5964 37.8742 42.4327 38.084C42.2733 38.2938 42.1516 38.5477 42.0676 38.8457C41.9879 39.1436 41.948 39.4772 41.948 39.8465C41.948 40.2326 41.9921 40.5767 42.0802 40.8789C42.1683 41.1768 42.2921 41.4286 42.4516 41.6342C42.6153 41.8357 42.8104 41.991 43.037 42.1001C43.2678 42.205 43.5259 42.2574 43.8113 42.2574C44.0841 42.2574 44.3086 42.226 44.4848 42.163C44.6611 42.0959 44.8059 42.0224 44.9192 41.9427C45.0367 41.863 45.1332 41.7916 45.2087 41.7287C45.2884 41.6615 45.3661 41.628 45.4416 41.628C45.5339 41.628 45.6053 41.6636 45.6556 41.735L45.9704 42.1441C45.8319 42.3162 45.6745 42.4631 45.4983 42.5848C45.322 42.7065 45.1311 42.8093 44.9255 42.8932C44.724 42.9729 44.5121 43.0317 44.2897 43.0695C44.0673 43.1072 43.8407 43.1261 43.6098 43.1261C43.2112 43.1261 42.8398 43.0527 42.4957 42.9058C42.1558 42.7589 41.8599 42.547 41.6081 42.27C41.3563 41.9889 41.1591 41.6447 41.0164 41.2377C40.8737 40.8306 40.8024 40.3669 40.8024 39.8465C40.8024 39.3723 40.8674 38.9338 40.9975 38.5309C41.1318 38.1281 41.3248 37.7819 41.5766 37.4923C41.8326 37.1985 42.1453 36.9698 42.5146 36.8062C42.888 36.6425 43.3161 36.5607 43.7987 36.5607C44.2477 36.5607 44.6422 36.6341 44.9821 36.781C45.3262 36.9237 45.6305 37.1272 45.8948 37.3916L45.599 37.7944Z" fill="#0C1638"/>
<path d="M52.6433 36.6614V43.038H51.5229V38.7072C51.5229 38.6233 51.5271 38.533 51.5354 38.4365C51.5438 38.34 51.5543 38.2435 51.5669 38.1469C51.5292 38.2309 51.4914 38.3085 51.4536 38.3799C51.4158 38.4512 51.376 38.5162 51.334 38.575L48.2559 42.761C48.2097 42.8282 48.151 42.8932 48.0796 42.9562C48.0125 43.0149 47.9369 43.0443 47.853 43.0443H47.1732V36.6677H48.2999V40.9985C48.2999 41.0782 48.2957 41.1663 48.2873 41.2629C48.279 41.3552 48.2685 41.4496 48.2559 41.5461C48.2936 41.4664 48.3314 41.3929 48.3692 41.3258C48.4069 41.2545 48.4447 41.1894 48.4825 41.1307L51.5606 36.9446C51.6068 36.8775 51.6655 36.8146 51.7369 36.7558C51.8082 36.6929 51.8859 36.6614 51.9698 36.6614H52.6433Z" fill="#0C1638"/>
<path d="M59.8848 36.6614V43.038H58.7643V38.7072C58.7643 38.6233 58.7685 38.533 58.7769 38.4365C58.7853 38.34 58.7958 38.2435 58.8084 38.1469C58.7706 38.2309 58.7328 38.3085 58.6951 38.3799C58.6573 38.4512 58.6174 38.5162 58.5755 38.575L55.4973 42.761C55.4512 42.8282 55.3924 42.8932 55.3211 42.9562C55.2539 43.0149 55.1784 43.0443 55.0945 43.0443H54.4146V36.6677H55.5414V40.9985C55.5414 41.0782 55.5372 41.1663 55.5288 41.2629C55.5204 41.3552 55.5099 41.4496 55.4973 41.5461C55.5351 41.4664 55.5729 41.3929 55.6106 41.3258C55.6484 41.2545 55.6862 41.1894 55.7239 41.1307L58.8021 36.9446C58.8482 36.8775 58.907 36.8146 58.9783 36.7558C59.0497 36.6929 59.1273 36.6614 59.2112 36.6614H59.8848ZM57.2221 35.1192C57.3941 35.1192 57.5389 35.1003 57.6564 35.0625C57.7739 35.0205 57.8683 34.9555 57.9397 34.8674C58.0152 34.7792 58.0698 34.6659 58.1034 34.5275C58.1369 34.389 58.1537 34.219 58.1537 34.0176H58.8084C58.8881 34.0176 58.9489 34.0532 58.9909 34.1246C59.0329 34.1959 59.0539 34.2736 59.0539 34.3575C59.0539 34.5673 59.0119 34.7562 58.928 34.924C58.844 35.0919 58.7223 35.2367 58.5629 35.3584C58.4076 35.4759 58.2167 35.5661 57.99 35.629C57.7634 35.692 57.5074 35.7235 57.2221 35.7235C56.9367 35.7235 56.6807 35.692 56.4541 35.629C56.2275 35.5661 56.0345 35.4759 55.875 35.3584C55.7197 35.2367 55.6001 35.0919 55.5162 34.924C55.4323 34.7562 55.3903 34.5673 55.3903 34.3575C55.3903 34.2736 55.4113 34.1959 55.4533 34.1246C55.4952 34.0532 55.5561 34.0176 55.6358 34.0176H56.2905C56.2905 34.219 56.3072 34.389 56.3408 34.5275C56.3744 34.6659 56.4268 34.7792 56.4982 34.8674C56.5737 34.9555 56.6702 35.0205 56.7877 35.0625C56.9053 35.1003 57.05 35.1192 57.2221 35.1192Z" fill="#0C1638"/>
<path d="M66.0939 37.7944C66.0603 37.8406 66.0267 37.8763 65.9932 37.9015C65.9596 37.9266 65.9134 37.9392 65.8547 37.9392C65.7917 37.9392 65.7225 37.914 65.6469 37.8637C65.5714 37.8091 65.477 37.7504 65.3637 37.6874C65.2546 37.6245 65.1182 37.5678 64.9545 37.5175C64.7951 37.4629 64.5978 37.4356 64.3628 37.4356C64.0481 37.4356 63.7711 37.4923 63.5319 37.6056C63.2927 37.7147 63.0913 37.8742 62.9276 38.084C62.7681 38.2938 62.6464 38.5477 62.5625 38.8457C62.4828 39.1436 62.4429 39.4772 62.4429 39.8465C62.4429 40.2326 62.487 40.5767 62.5751 40.8789C62.6632 41.1768 62.787 41.4286 62.9465 41.6342C63.1102 41.8357 63.3053 41.991 63.5319 42.1001C63.7627 42.205 64.0208 42.2574 64.3062 42.2574C64.5789 42.2574 64.8034 42.226 64.9797 42.163C65.156 42.0959 65.3007 42.0224 65.414 41.9427C65.5315 41.863 65.6281 41.7916 65.7036 41.7287C65.7833 41.6615 65.861 41.628 65.9365 41.628C66.0288 41.628 66.1002 41.6636 66.1505 41.735L66.4653 42.1441C66.3268 42.3162 66.1694 42.4631 65.9932 42.5848C65.8169 42.7065 65.626 42.8093 65.4203 42.8932C65.2189 42.9729 65.007 43.0317 64.7846 43.0695C64.5621 43.1072 64.3355 43.1261 64.1047 43.1261C63.7061 43.1261 63.3347 43.0527 62.9906 42.9058C62.6506 42.7589 62.3548 42.547 62.103 42.27C61.8512 41.9889 61.654 41.6447 61.5113 41.2377C61.3686 40.8306 61.2973 40.3669 61.2973 39.8465C61.2973 39.3723 61.3623 38.9338 61.4924 38.5309C61.6267 38.1281 61.8197 37.7819 62.0715 37.4923C62.3275 37.1985 62.6401 36.9698 63.0094 36.8062C63.3829 36.6425 63.811 36.5607 64.2936 36.5607C64.7426 36.5607 65.1371 36.6341 65.477 36.781C65.8211 36.9237 66.1253 37.1272 66.3897 37.3916L66.0939 37.7944Z" fill="#0C1638"/>
<path d="M71.5393 36.9761C71.5981 36.8838 71.6757 36.8083 71.7722 36.7495C71.8688 36.6908 71.9716 36.6614 72.0807 36.6614H72.9557L71.3001 39.0912C71.1994 39.2464 71.0945 39.3744 70.9854 39.4751C70.8763 39.5717 70.742 39.6472 70.5825 39.7018C70.784 39.7563 70.9539 39.8423 71.0924 39.9598C71.2309 40.0731 71.3547 40.22 71.4638 40.4005L73.1382 43.038H72.3577C72.1562 43.038 72.001 43.0044 71.8918 42.9373C71.7827 42.8701 71.6883 42.7736 71.6086 42.6477L70.3685 40.6649C70.1713 40.3375 69.8754 40.1739 69.4809 40.1739H68.7948V43.0443H67.6681V36.6614H68.7948V39.4185H69.3991C69.7348 39.4185 69.9971 39.2758 70.186 38.9904L71.5393 36.9761Z" fill="#0C1638"/>
<path d="M79.6543 36.6614V43.038H78.5338V38.7072C78.5338 38.6233 78.538 38.533 78.5464 38.4365C78.5548 38.34 78.5653 38.2435 78.5779 38.1469C78.5401 38.2309 78.5023 38.3085 78.4646 38.3799C78.4268 38.4512 78.3869 38.5162 78.345 38.575L75.2668 42.761C75.2207 42.8282 75.1619 42.8932 75.0906 42.9562C75.0234 43.0149 74.9479 43.0443 74.864 43.0443H74.1841V36.6677H75.3109V40.9985C75.3109 41.0782 75.3067 41.1663 75.2983 41.2629C75.2899 41.3552 75.2794 41.4496 75.2668 41.5461C75.3046 41.4664 75.3424 41.3929 75.3801 41.3258C75.4179 41.2545 75.4557 41.1894 75.4934 41.1307L78.5716 36.9446C78.6177 36.8775 78.6765 36.8146 78.7478 36.7558C78.8192 36.6929 78.8968 36.6614 78.9807 36.6614H79.6543Z" fill="#0C1638"/>
<path d="M86.8957 36.6614V43.038H85.7753V38.7072C85.7753 38.6233 85.7794 38.533 85.7878 38.4365C85.7962 38.34 85.8067 38.2435 85.8193 38.1469C85.7816 38.2309 85.7438 38.3085 85.706 38.3799C85.6682 38.4512 85.6284 38.5162 85.5864 38.575L82.5083 42.761C82.4621 42.8282 82.4034 42.8932 82.332 42.9562C82.2649 43.0149 82.1893 43.0443 82.1054 43.0443H81.4256V36.6677H82.5523V40.9985C82.5523 41.0782 82.5481 41.1663 82.5397 41.2629C82.5313 41.3552 82.5209 41.4496 82.5083 41.5461C82.546 41.4664 82.5838 41.3929 82.6216 41.3258C82.6593 41.2545 82.6971 41.1894 82.7349 41.1307L85.813 36.9446C85.8592 36.8775 85.9179 36.8146 85.9893 36.7558C86.0606 36.6929 86.1383 36.6614 86.2222 36.6614H86.8957ZM84.233 35.1192C84.4051 35.1192 84.5499 35.1003 84.6674 35.0625C84.7849 35.0205 84.8793 34.9555 84.9506 34.8674C85.0262 34.7792 85.0807 34.6659 85.1143 34.5275C85.1479 34.389 85.1647 34.219 85.1647 34.0176H85.8193C85.8991 34.0176 85.9599 34.0532 86.0019 34.1246C86.0438 34.1959 86.0648 34.2736 86.0648 34.3575C86.0648 34.5673 86.0229 34.7562 85.9389 34.924C85.855 35.0919 85.7333 35.2367 85.5738 35.3584C85.4185 35.4759 85.2276 35.5661 85.001 35.629C84.7744 35.692 84.5184 35.7235 84.233 35.7235C83.9477 35.7235 83.6917 35.692 83.4651 35.629C83.2385 35.5661 83.0454 35.4759 82.886 35.3584C82.7307 35.2367 82.6111 35.0919 82.5272 34.924C82.4432 34.7562 82.4013 34.5673 82.4013 34.3575C82.4013 34.2736 82.4222 34.1959 82.4642 34.1246C82.5062 34.0532 82.567 34.0176 82.6468 34.0176H83.3014C83.3014 34.219 83.3182 34.389 83.3518 34.5275C83.3853 34.6659 83.4378 34.7792 83.5091 34.8674C83.5847 34.9555 83.6812 35.0205 83.7987 35.0625C83.9162 35.1003 84.061 35.1192 84.233 35.1192Z" fill="#0C1638"/>
<path d="M97.201 43.038H96.0742V37.5175H93.0149V43.038H91.8882V36.6614H97.201V43.038Z" fill="#0C1638"/>
<path d="M100.109 41.5021C100.314 41.779 100.539 41.9742 100.782 42.0875C101.026 42.2008 101.299 42.2574 101.601 42.2574C102.197 42.2574 102.654 42.0455 102.973 41.6217C103.292 41.1978 103.451 40.5935 103.451 39.8088C103.451 39.3933 103.414 39.0366 103.338 38.7387C103.267 38.4407 103.162 38.1973 103.023 38.0085C102.885 37.8154 102.715 37.6748 102.513 37.5867C102.312 37.4986 102.083 37.4545 101.827 37.4545C101.462 37.4545 101.141 37.5385 100.864 37.7063C100.591 37.8742 100.34 38.1113 100.109 38.4176V41.5021ZM100.052 37.6497C100.321 37.3181 100.631 37.0517 100.984 36.8502C101.336 36.6488 101.739 36.5481 102.192 36.5481C102.562 36.5481 102.895 36.6194 103.193 36.7621C103.491 36.9006 103.745 37.1083 103.955 37.3853C104.165 37.6581 104.326 37.998 104.44 38.405C104.553 38.8121 104.61 39.28 104.61 39.8088C104.61 40.2788 104.547 40.7173 104.421 41.1244C104.295 41.5272 104.112 41.8776 103.873 42.1756C103.638 42.4694 103.349 42.7023 103.004 42.8743C102.665 43.0422 102.281 43.1261 101.852 43.1261C101.462 43.1261 101.126 43.0611 100.845 42.931C100.568 42.7967 100.323 42.612 100.109 42.377V45.1971H98.9821V36.6614H99.6556C99.8151 36.6614 99.9137 36.739 99.9515 36.8943L100.052 37.6497Z" fill="#0C1638"/>
<path d="M108.715 36.5607C109.18 36.5607 109.6 36.6383 109.974 36.7936C110.347 36.9488 110.666 37.1692 110.93 37.4545C111.195 37.7399 111.396 38.0861 111.535 38.4932C111.677 38.896 111.749 39.3471 111.749 39.8465C111.749 40.3501 111.677 40.8033 111.535 41.2062C111.396 41.6091 111.195 41.9532 110.93 42.2385C110.666 42.5239 110.347 42.7442 109.974 42.8995C109.6 43.0506 109.18 43.1261 108.715 43.1261C108.245 43.1261 107.821 43.0506 107.443 42.8995C107.07 42.7442 106.751 42.5239 106.486 42.2385C106.222 41.9532 106.018 41.6091 105.876 41.2062C105.737 40.8033 105.668 40.3501 105.668 39.8465C105.668 39.3471 105.737 38.896 105.876 38.4932C106.018 38.0861 106.222 37.7399 106.486 37.4545C106.751 37.1692 107.07 36.9488 107.443 36.7936C107.821 36.6383 108.245 36.5607 108.715 36.5607ZM108.715 42.2511C109.344 42.2511 109.814 42.0413 110.125 41.6217C110.435 41.1978 110.591 40.6082 110.591 39.8528C110.591 39.0933 110.435 38.5016 110.125 38.0777C109.814 37.6539 109.344 37.4419 108.715 37.4419C108.396 37.4419 108.117 37.4965 107.877 37.6056C107.642 37.7147 107.445 37.8721 107.286 38.0777C107.13 38.2833 107.013 38.5372 106.933 38.8394C106.858 39.1373 106.82 39.4751 106.82 39.8528C106.82 40.6082 106.975 41.1978 107.286 41.6217C107.6 42.0413 108.077 42.2511 108.715 42.2511Z" fill="#0C1638"/>
<path d="M118.64 36.6614V43.038H117.52V38.7072C117.52 38.6233 117.524 38.533 117.532 38.4365C117.541 38.34 117.551 38.2435 117.564 38.1469C117.526 38.2309 117.488 38.3085 117.45 38.3799C117.413 38.4512 117.373 38.5162 117.331 38.575L114.253 42.761C114.206 42.8282 114.148 42.8932 114.076 42.9562C114.009 43.0149 113.934 43.0443 113.85 43.0443H113.17V36.6677H114.297V40.9985C114.297 41.0782 114.292 41.1663 114.284 41.2629C114.276 41.3552 114.265 41.4496 114.253 41.5461C114.29 41.4664 114.328 41.3929 114.366 41.3258C114.404 41.2545 114.441 41.1894 114.479 41.1307L117.557 36.9446C117.604 36.8775 117.662 36.8146 117.734 36.7558C117.805 36.6929 117.883 36.6614 117.967 36.6614H118.64Z" fill="#0C1638"/>
<path d="M120.008 37.316C120.248 37.0894 120.537 36.9069 120.877 36.7684C121.221 36.6299 121.635 36.5607 122.117 36.5607C122.503 36.5607 122.843 36.6089 123.137 36.7054C123.431 36.7978 123.676 36.9216 123.873 37.0768C124.075 37.2321 124.226 37.4105 124.327 37.6119C124.432 37.8091 124.484 38.0148 124.484 38.2288C124.484 38.3547 124.463 38.4869 124.421 38.6253C124.383 38.7638 124.318 38.896 124.226 39.0219C124.134 39.1478 124.014 39.2653 123.867 39.3744C123.72 39.4835 123.538 39.5717 123.32 39.6388C123.727 39.7605 124.046 39.9556 124.276 40.2242C124.511 40.4928 124.629 40.8222 124.629 41.2125C124.629 41.5063 124.562 41.7727 124.427 42.0119C124.293 42.2469 124.113 42.4484 123.886 42.6162C123.659 42.7799 123.395 42.9058 123.093 42.9939C122.795 43.082 122.482 43.1261 122.155 43.1261C121.949 43.1261 121.74 43.1072 121.526 43.0695C121.316 43.0317 121.11 42.9729 120.909 42.8932C120.707 42.8093 120.516 42.7065 120.336 42.5848C120.16 42.4631 120.002 42.3162 119.864 42.1441L120.178 41.735C120.229 41.6636 120.3 41.628 120.392 41.628C120.468 41.628 120.548 41.6615 120.632 41.7287C120.72 41.7916 120.827 41.863 120.953 41.9427C121.079 42.0224 121.232 42.0959 121.412 42.163C121.597 42.226 121.821 42.2574 122.086 42.2574C122.317 42.2574 122.522 42.2302 122.703 42.1756C122.887 42.1168 123.043 42.0371 123.168 41.9364C123.294 41.8357 123.391 41.7161 123.458 41.5776C123.525 41.4391 123.559 41.288 123.559 41.1244C123.559 40.8096 123.427 40.5557 123.162 40.3627C122.902 40.1697 122.505 40.0731 121.972 40.0731H121.249V39.3304H121.972C122.203 39.3304 122.411 39.3073 122.596 39.2611C122.78 39.2108 122.938 39.1436 123.068 39.0597C123.198 38.9758 123.296 38.875 123.364 38.7575C123.431 38.6358 123.464 38.5057 123.464 38.3673C123.464 38.2414 123.435 38.1218 123.376 38.0085C123.322 37.8952 123.236 37.7965 123.118 37.7126C123.005 37.6287 122.862 37.5615 122.69 37.5112C122.518 37.4608 122.317 37.4356 122.086 37.4356C121.834 37.4356 121.62 37.4608 121.444 37.5112C121.272 37.5615 121.125 37.6161 121.003 37.6748C120.886 37.7336 120.789 37.7881 120.713 37.8385C120.638 37.8889 120.573 37.914 120.518 37.914C120.464 37.914 120.418 37.9035 120.38 37.8826C120.346 37.8616 120.309 37.8175 120.267 37.7504L120.008 37.316Z" fill="#0C1638"/>
<path d="M128.515 42.2511C128.935 42.2511 129.267 42.1546 129.51 41.9616C129.753 41.7643 129.875 41.4958 129.875 41.1558C129.875 41.0048 129.852 40.8684 129.806 40.7467C129.76 40.6208 129.684 40.5117 129.579 40.4194C129.474 40.327 129.334 40.2557 129.158 40.2053C128.985 40.155 128.774 40.1298 128.522 40.1298H127.143V42.2511H128.515ZM127.143 37.4168V39.4185H128.371C128.555 39.4185 128.725 39.3933 128.881 39.343C129.04 39.2884 129.176 39.215 129.29 39.1226C129.403 39.0261 129.491 38.9128 129.554 38.7827C129.617 38.6484 129.649 38.5016 129.649 38.3421C129.649 38.2246 129.628 38.1113 129.586 38.0022C129.544 37.8889 129.472 37.7902 129.372 37.7063C129.271 37.6182 129.139 37.5489 128.975 37.4986C128.811 37.444 128.61 37.4168 128.371 37.4168H127.143ZM128.402 36.6614C128.797 36.6614 129.134 36.7012 129.416 36.781C129.697 36.8607 129.928 36.9698 130.108 37.1083C130.288 37.2426 130.421 37.4021 130.505 37.5867C130.589 37.7714 130.63 37.9686 130.63 38.1784C130.63 38.3169 130.612 38.4617 130.574 38.6128C130.536 38.7638 130.469 38.9086 130.372 39.0471C130.28 39.1856 130.152 39.3115 129.988 39.4248C129.829 39.5339 129.628 39.6199 129.384 39.6829C129.871 39.7668 130.247 39.9368 130.511 40.1927C130.775 40.4445 130.907 40.7782 130.907 41.1936C130.907 41.5042 130.845 41.7748 130.719 42.0056C130.597 42.2323 130.427 42.4232 130.209 42.5785C129.995 42.7337 129.743 42.8491 129.453 42.9247C129.164 43.0002 128.853 43.038 128.522 43.038H126.067V36.6614H128.402Z" fill="#0C1638"/>
<path d="M135 36.5607C135.466 36.5607 135.886 36.6383 136.259 36.7936C136.633 36.9488 136.952 37.1692 137.216 37.4545C137.48 37.7399 137.682 38.0861 137.82 38.4932C137.963 38.896 138.034 39.3471 138.034 39.8465C138.034 40.3501 137.963 40.8033 137.82 41.2062C137.682 41.6091 137.48 41.9532 137.216 42.2385C136.952 42.5239 136.633 42.7442 136.259 42.8995C135.886 43.0506 135.466 43.1261 135 43.1261C134.53 43.1261 134.106 43.0506 133.729 42.8995C133.355 42.7442 133.036 42.5239 132.772 42.2385C132.508 41.9532 132.304 41.6091 132.161 41.2062C132.023 40.8033 131.954 40.3501 131.954 39.8465C131.954 39.3471 132.023 38.896 132.161 38.4932C132.304 38.0861 132.508 37.7399 132.772 37.4545C133.036 37.1692 133.355 36.9488 133.729 36.7936C134.106 36.6383 134.53 36.5607 135 36.5607ZM135 42.2511C135.63 42.2511 136.1 42.0413 136.41 41.6217C136.721 41.1978 136.876 40.6082 136.876 39.8528C136.876 39.0933 136.721 38.5016 136.41 38.0777C136.1 37.6539 135.63 37.4419 135 37.4419C134.681 37.4419 134.402 37.4965 134.163 37.6056C133.928 37.7147 133.731 37.8721 133.571 38.0777C133.416 38.2833 133.299 38.5372 133.219 38.8394C133.143 39.1373 133.106 39.4751 133.106 39.8528C133.106 40.6082 133.261 41.1978 133.571 41.6217C133.886 42.0413 134.362 42.2511 135 42.2511Z" fill="#0C1638"/>
<path d="M143.616 42.2197V37.5426H141.595C141.553 38.1973 141.494 38.7764 141.419 39.28C141.343 39.7836 141.255 40.2263 141.154 40.6082C141.058 40.9859 140.949 41.3069 140.827 41.5713C140.71 41.8357 140.586 42.0518 140.456 42.2197H143.616ZM145.869 42.1882V44.8886C145.869 44.9978 145.838 45.0817 145.775 45.1404C145.716 45.2034 145.638 45.2349 145.542 45.2349H144.856V43.038H139.493V44.9138C139.493 44.9936 139.467 45.067 139.417 45.1341C139.371 45.2013 139.293 45.2349 139.184 45.2349H138.479V42.2197H138.687C138.834 42.2197 138.978 42.1945 139.121 42.1441C139.268 42.0938 139.409 41.9993 139.543 41.8609C139.677 41.7182 139.803 41.5188 139.921 41.2629C140.042 41.0069 140.151 40.6732 140.248 40.262C140.344 39.8507 140.428 39.3513 140.5 38.7638C140.571 38.1721 140.628 37.4713 140.67 36.6614H144.705V42.1882H145.869Z" fill="#0C1638"/>
<path d="M152.474 36.6614V43.038H151.354V38.7072C151.354 38.6233 151.358 38.533 151.367 38.4365C151.375 38.34 151.385 38.2435 151.398 38.1469C151.36 38.2309 151.322 38.3085 151.285 38.3799C151.247 38.4512 151.207 38.5162 151.165 38.575L148.087 42.761C148.041 42.8282 147.982 42.8932 147.911 42.9562C147.844 43.0149 147.768 43.0443 147.684 43.0443H147.004V36.6677H148.131V40.9985C148.131 41.0782 148.127 41.1663 148.118 41.2629C148.11 41.3552 148.1 41.4496 148.087 41.5461C148.125 41.4664 148.163 41.3929 148.2 41.3258C148.238 41.2545 148.276 41.1894 148.314 41.1307L151.392 36.9446C151.438 36.8775 151.497 36.8146 151.568 36.7558C151.639 36.6929 151.717 36.6614 151.801 36.6614H152.474Z" fill="#0C1638"/>
<path d="M159.546 37.5175H157.097V43.038H155.977V37.5175H153.528V36.6614H159.546V37.5175Z" fill="#0C1638"/>
<path d="M164.624 39.1541C164.624 38.8939 164.586 38.6568 164.511 38.4428C164.439 38.2246 164.332 38.0378 164.19 37.8826C164.051 37.7231 163.881 37.6014 163.68 37.5175C163.478 37.4293 163.25 37.3853 162.994 37.3853C162.456 37.3853 162.03 37.5426 161.716 37.8574C161.405 38.1679 161.212 38.6002 161.137 39.1541H164.624ZM165.53 42.1441C165.392 42.312 165.226 42.4589 165.033 42.5848C164.84 42.7065 164.632 42.8072 164.41 42.8869C164.192 42.9666 163.965 43.0254 163.73 43.0632C163.495 43.1051 163.262 43.1261 163.031 43.1261C162.591 43.1261 162.184 43.0527 161.81 42.9058C161.441 42.7547 161.12 42.5365 160.847 42.2511C160.578 41.9616 160.369 41.6049 160.218 41.181C160.067 40.7572 159.991 40.2704 159.991 39.7206C159.991 39.2758 160.058 38.8604 160.192 38.4743C160.331 38.0882 160.528 37.7546 160.784 37.4734C161.04 37.188 161.353 36.9656 161.722 36.8062C162.091 36.6425 162.507 36.5607 162.968 36.5607C163.35 36.5607 163.703 36.6257 164.026 36.7558C164.353 36.8817 164.634 37.0663 164.869 37.3097C165.109 37.5489 165.295 37.8469 165.43 38.2036C165.564 38.5561 165.631 38.959 165.631 39.4122C165.631 39.5884 165.612 39.706 165.574 39.7647C165.537 39.8235 165.465 39.8528 165.36 39.8528H161.099C161.111 40.2557 161.166 40.6061 161.263 40.9041C161.363 41.202 161.502 41.4517 161.678 41.6531C161.854 41.8504 162.064 41.9993 162.307 42.1001C162.551 42.1966 162.824 42.2448 163.126 42.2448C163.407 42.2448 163.648 42.2134 163.85 42.1504C164.055 42.0833 164.232 42.0119 164.378 41.9364C164.525 41.8609 164.647 41.7916 164.744 41.7287C164.844 41.6615 164.93 41.628 165.002 41.628C165.094 41.628 165.165 41.6636 165.216 41.735L165.53 42.1441Z" fill="#0C1638"/>
<path d="M172.597 43.038H171.477V37.5426H169.462C169.412 38.3526 169.336 39.0534 169.236 39.6451C169.135 40.2326 169.013 40.7341 168.871 41.1496C168.732 41.5608 168.575 41.8965 168.399 42.1567C168.226 42.4127 168.044 42.612 167.851 42.7547C167.662 42.8974 167.465 42.9939 167.259 43.0443C167.058 43.0946 166.856 43.1198 166.655 43.1198C166.298 43.1198 166.12 43.0632 166.12 42.9499V42.2385H166.447C166.59 42.2385 166.735 42.2134 166.881 42.163C167.028 42.1127 167.171 42.0161 167.31 41.8735C167.452 41.7308 167.589 41.5314 167.719 41.2754C167.849 41.0153 167.966 40.6795 168.071 40.2683C168.18 39.8528 168.273 39.3513 168.348 38.7638C168.428 38.1721 168.489 37.4713 168.531 36.6614H172.597V43.038Z" fill="#0C1638"/>
<path d="M176.82 42.2197C177.047 42.2197 177.242 42.1924 177.406 42.1378C177.574 42.0791 177.712 41.9993 177.821 41.8986C177.93 41.7937 178.012 41.672 178.067 41.5335C178.121 41.395 178.149 41.244 178.149 41.0803C178.149 40.9292 178.126 40.7887 178.079 40.6586C178.033 40.5243 177.956 40.4068 177.846 40.3061C177.742 40.2053 177.603 40.1256 177.431 40.0669C177.259 40.0081 177.049 39.9787 176.802 39.9787H175.448V42.2197H176.82ZM176.802 39.1604C177.242 39.1604 177.611 39.2129 177.909 39.3178C178.212 39.4227 178.453 39.5633 178.633 39.7395C178.818 39.9158 178.95 40.1193 179.03 40.3501C179.11 40.5809 179.149 40.8201 179.149 41.0677C179.149 41.3531 179.099 41.6175 178.998 41.8609C178.898 42.1001 178.749 42.3078 178.551 42.484C178.354 42.6561 178.111 42.7925 177.821 42.8932C177.532 42.9897 177.198 43.038 176.82 43.038H174.372V36.6614H175.448V39.1604H176.802Z" fill="#0C1638"/>
</g>
</svg>
